<?xml version="1.0" standalone="no"?>
<!DOCTYPE svg PUBLIC "-//W3C//DTD SVG 20010904//EN"
 "http://www.w3.org/TR/2001/REC-SVG-20010904/DTD/svg10.dtd">
<svg version="1.0" xmlns="http://www.w3.org/2000/svg"
 width="900.000000pt" height="177.000000pt" viewBox="0 0 900.000000 177.000000"
 preserveAspectRatio="xMidYMid meet">
<metadata>
Created by potrace 1.10, written by Peter Selinger 2001-2011
</metadata>
<g transform="translate(0.000000,177.000000) scale(0.100000,-0.100000)"
fill="#000000" stroke="none">
<path d="M595 1593 c-44 -22 -84 -63 -106 -106 -18 -35 -20 -58 -19 -250 1
-117 1 -220 1 -229 -1 -9 -10 -20 -21 -23 -11 -4 -39 -32 -62 -63 -42 -57 -42
-57 -43 -147 0 -72 4 -96 19 -120 28 -43 78 -95 92 -95 6 0 14 -12 17 -27 6
-33 -3 -93 -14 -93 -4 0 -24 -16 -44 -37 -32 -33 -35 -41 -35 -92 0 -70 31
-120 92 -151 41 -20 56 -21 298 -18 l254 3 11 44 c15 62 64 101 126 101 40 0
51 -5 80 -35 23 -23 36 -47 39 -72 l5 -38 258 -3 c271 -2 287 0 340 46 20 18
57 96 57 121 0 33 -40 100 -75 127 -28 21 -35 33 -35 61 0 29 8 43 50 81 69
65 90 110 90 195 0 84 -22 131 -92 198 l-49 47 6 189 c9 225 0 284 -47 332
-17 18 -50 41 -72 52 -38 18 -65 19 -565 18 -449 -1 -530 -3 -556 -16z m1136
-101 l29 -32 2 -208 c2 -180 3 -225 7 -289 1 -7 7 -13 14 -13 22 0 86 -67 102
-107 34 -82 6 -169 -74 -228 l-52 -37 3 -87 3 -86 39 -20 c45 -23 63 -66 47
-109 -20 -51 -38 -55 -276 -57 l-220 -1 -15 24 c-57 92 -93 113 -192 112 -77
0 -79 -1 -119 -40 -22 -21 -47 -51 -55 -67 l-15 -27 -222 1 c-122 0 -230 4
-240 7 -20 8 -47 55 -47 81 1 29 25 61 61 79 l34 17 3 87 3 86 -33 23 c-70 48
-108 112 -108 180 0 53 45 122 112 171 15 11 18 44 26 265 8 248 9 252 33 276
13 14 33 27 44 30 11 3 258 4 548 4 l529 -2 29 -33z"/>
<path d="M765 1313 c-50 -14 -128 -82 -156 -135 -15 -29 -19 -58 -19 -133 0
-86 3 -100 26 -138 36 -57 55 -74 122 -108 81 -41 151 -40 229 2 108 58 148
125 147 239 -1 101 -10 132 -52 180 -60 71 -103 92 -196 96 -45 1 -90 0 -101
-3z m172 -55 c67 -29 133 -100 133 -143 0 -14 -6 -16 -30 -11 -35 7 -70 -20
-70 -54 0 -31 48 -72 70 -60 19 10 30 4 30 -17 0 -22 -48 -80 -93 -113 -38
-28 -47 -30 -127 -30 -68 0 -92 4 -108 18 -12 9 -33 25 -47 35 -14 10 -38 44
-52 75 -29 64 -28 130 3 192 22 43 36 58 88 92 34 22 53 27 108 27 37 1 80 -4
95 -11z"/>
<path d="M1380 1313 c-55 -11 -124 -70 -158 -133 -28 -53 -32 -71 -31 -133 0
-61 5 -81 32 -131 50 -91 115 -132 232 -143 69 -6 173 41 217 99 104 139 67
324 -85 421 -28 18 -157 31 -207 20z m178 -62 c78 -40 132 -122 132 -201 0
-72 -53 -160 -122 -204 -19 -12 -49 -17 -107 -18 -88 0 -123 14 -172 69 -21
24 -59 88 -59 99 0 1 15 0 34 -3 41 -6 76 20 76 57 0 37 -18 50 -67 50 -24 0
-43 2 -43 3 0 2 7 19 17 38 18 38 72 92 112 113 40 21 154 20 199 -3z"/>
<path d="M2247 1583 c-13 -12 -8 -308 5 -321 16 -16 33 -15 52 3 11 12 14 28
9 66 -7 60 1 69 65 69 41 0 43 1 40 28 -3 25 -6 27 -56 30 -51 3 -53 4 -50 30
3 25 7 27 55 30 46 3 54 6 59 27 3 13 3 29 -1 34 -7 12 -167 15 -178 4z"/>
<path d="M2563 1582 c-11 -7 -83 -110 -83 -118 0 -3 -29 -44 -65 -92 -36 -48
-64 -94 -63 -102 6 -27 38 -22 67 9 25 27 36 31 80 31 46 0 53 -3 61 -25 10
-28 37 -33 46 -10 5 13 8 13 27 0 12 -8 29 -15 39 -15 16 0 18 10 18 70 0 51
4 70 13 70 15 0 47 -67 47 -99 0 -27 44 -50 67 -35 9 5 25 38 36 72 15 45 25
62 37 59 12 -2 14 -15 12 -65 -2 -51 0 -64 14 -69 9 -3 24 -2 32 4 14 8 16 30
14 139 -2 71 2 135 7 143 16 25 23 -24 20 -149 -4 -125 5 -156 34 -132 10 9
22 9 44 1 17 -5 53 -9 79 -7 47 3 49 4 49 33 0 28 -3 30 -40 35 l-40 5 -3 99
c-1 55 0 106 3 114 9 24 39 -11 79 -92 29 -59 36 -84 36 -134 0 -52 3 -62 20
-67 37 -12 53 13 45 70 -5 45 -2 58 31 120 20 39 43 79 50 90 25 36 18 55 -21
55 -29 0 -36 -5 -49 -32 -8 -18 -16 -42 -18 -53 -2 -12 -11 -20 -22 -20 -19 0
-23 4 -50 68 -13 31 -21 37 -45 37 -17 0 -33 -5 -36 -10 -4 -6 -14 -7 -23 -2
-15 7 -101 8 -127 1 -5 -1 -23 1 -38 6 -38 10 -77 -8 -77 -36 0 -11 -6 -33
-14 -47 -8 -15 -17 -39 -20 -53 -3 -15 -14 -37 -25 -50 l-19 -24 -20 46 c-11
25 -28 71 -38 102 -21 64 -45 79 -91 58 -18 -8 -29 -9 -37 -1 -12 12 -26 13
-43 2z m71 -54 c10 -39 7 -188 -5 -210 -9 -17 -13 -18 -20 -7 -10 16 -12 199
-3 223 9 23 21 20 28 -6z m421 -39 c8 -47 -3 -169 -15 -169 -12 0 -22 98 -14
156 8 64 20 69 29 13z m-487 -68 c5 -29 -15 -51 -44 -51 -31 0 -32 32 -3 61
24 24 43 21 47 -10z"/>
<path d="M3532 1582 c-44 -14 -87 -58 -106 -111 -18 -50 -18 -54 -1 -99 22
-59 37 -77 89 -102 51 -24 86 -25 129 -4 46 24 67 44 67 67 0 20 7 20 -118 1
-32 -5 -44 -1 -68 19 -24 21 -29 33 -29 71 0 39 5 50 30 71 34 27 80 32 109
10 20 -15 67 -20 78 -9 12 11 -5 45 -33 65 -30 21 -109 33 -147 21z"/>
<path d="M3825 1581 c-43 -18 -94 -83 -101 -127 -12 -80 14 -134 87 -180 50
-31 98 -31 148 0 56 36 81 82 81 147 -1 98 -55 160 -144 166 -28 1 -60 -1 -71
-6z m120 -81 c34 -21 48 -59 38 -101 -8 -33 -20 -47 -59 -65 -64 -30 -129 17
-129 92 0 80 78 119 150 74z"/>
<path d="M4069 1583 c0 -5 0 -77 0 -162 0 -159 5 -181 41 -161 11 7 15 25 15
72 0 84 19 83 48 -2 20 -56 27 -65 49 -68 28 -3 58 28 58 60 0 25 40 89 52 82
5 -3 8 -36 6 -73 l-3 -66 70 0 70 0 -3 53 c-3 51 -2 52 25 52 59 1 118 60 116
116 -1 40 -39 91 -73 98 -14 3 -69 4 -123 3 l-98 -2 -18 -40 c-9 -22 -25 -66
-36 -97 -11 -32 -24 -58 -31 -58 -14 0 -44 33 -44 49 0 23 -42 136 -53 143
-16 10 -67 10 -68 1z m351 -139 c0 -82 -14 -134 -32 -116 -13 13 -17 167 -5
196 6 15 10 16 22 6 11 -9 15 -33 15 -86z m131 47 c17 -45 -58 -81 -84 -40
-14 22 -1 67 21 71 27 7 55 -7 63 -31z"/>
<path d="M4632 1577 c-7 -8 -9 -16 -6 -20 3 -3 6 -60 5 -127 l0 -122 32 -29
c39 -36 90 -38 128 -6 41 35 49 59 49 157 l0 91 28 -3 27 -3 0 -130 0 -130 33
-3 c38 -4 35 -13 32 140 -2 108 -1 117 18 127 49 26 51 21 54 -126 l3 -138 68
-3 c38 -2 74 2 81 7 7 6 17 6 26 1 8 -6 25 -10 38 -10 21 0 22 4 22 75 0 97
14 97 60 2 30 -61 40 -72 64 -75 49 -6 59 3 39 35 -10 16 -23 34 -30 41 -24
25 -26 54 -5 71 11 9 27 31 36 48 16 31 15 35 -3 71 -35 68 -21 66 -353 64
-166 -1 -303 -4 -306 -7 -3 -3 -4 -55 -3 -116 3 -110 -5 -139 -35 -139 -7 0
-20 8 -29 17 -15 14 -17 34 -14 132 l4 116 -26 3 c-14 2 -31 -3 -37 -11z m577
-152 c0 -58 -3 -106 -7 -108 -4 -2 -31 -2 -59 1 -53 4 -53 4 -53 38 0 34 0 34
45 34 32 0 47 5 51 15 10 25 -16 45 -56 45 -30 0 -39 4 -43 21 -9 35 3 49 42
49 20 0 43 4 51 9 8 6 17 8 22 5 4 -3 7 -52 7 -109z m152 74 c8 -16 8 -28 0
-45 -9 -20 -18 -24 -51 -24 l-40 0 0 45 0 45 40 0 c30 0 42 -5 51 -21z"/>
<path d="M2240 627 c0 -433 2 -486 16 -491 9 -3 106 -6 217 -6 230 0 262 8
313 76 l29 37 3 365 c3 354 2 365 -18 408 -12 24 -36 54 -53 66 -31 22 -41 23
-269 26 l-238 3 0 -484z m466 412 c13 -4 30 -22 39 -40 15 -28 17 -75 16 -374
0 -231 -4 -350 -11 -367 -23 -51 -51 -57 -246 -58 -98 0 -185 -1 -191 0 -10 0
-13 90 -13 414 0 228 2 420 5 428 4 10 43 12 192 10 103 -2 197 -8 209 -13z"/>
<path d="M2455 907 c-3 -7 -4 -136 -3 -287 l3 -275 52 -3 c43 -2 55 1 72 19
20 22 21 33 21 263 l0 241 -25 28 c-21 22 -35 27 -71 27 -27 0 -47 -5 -49 -13z
m86 -74 c15 -40 8 -418 -8 -434 -7 -7 -16 -9 -20 -5 -9 9 -17 431 -9 452 9 22
26 16 37 -13z"/>
<path d="M2877 1103 c-4 -3 -7 -222 -7 -485 l0 -479 137 3 138 3 0 470 c0 259
-4 476 -9 483 -9 13 -246 18 -259 5z m216 -481 c2 -473 13 -426 -98 -420 l-60
3 -3 414 c-1 242 2 417 7 420 5 3 41 4 81 1 l72 -5 1 -413z"/>
<path d="M3281 1102 c-13 -4 -38 -24 -55 -45 -29 -37 -30 -41 -34 -162 -3 -68
-1 -145 3 -170 8 -58 53 -111 139 -162 159 -95 167 -102 164 -142 -2 -28 -8
-37 -24 -39 -18 -3 -22 4 -28 36 -5 34 -13 43 -65 76 -32 20 -61 36 -65 36 -3
0 -25 14 -49 30 -25 17 -50 30 -56 30 -8 0 -11 -54 -11 -175 0 -192 4 -209 65
-257 28 -22 37 -23 211 -23 l182 0 39 31 c57 47 71 95 68 235 -3 161 -11 174
-149 267 -59 39 -112 72 -115 72 -4 0 -17 10 -29 23 -23 24 -30 81 -12 92 16
10 40 -14 40 -40 0 -19 55 -75 74 -75 2 0 39 -23 81 -51 42 -27 82 -52 89 -55
10 -4 14 30 20 152 8 182 -2 229 -60 285 l-35 34 -182 2 c-100 1 -193 -1 -206
-5z m363 -66 c59 -24 66 -45 66 -188 0 -71 -4 -128 -8 -128 -5 0 -30 15 -56
33 -26 17 -60 39 -74 48 -18 10 -29 28 -34 54 -14 64 -57 82 -109 44 -27 -19
-29 -25 -29 -84 l0 -63 48 -34 c26 -19 76 -52 111 -73 35 -21 84 -57 108 -80
l43 -42 0 -132 0 -133 -29 -29 -29 -29 -169 0 c-230 0 -238 6 -242 198 -2 129
-1 131 77 79 27 -19 57 -37 66 -40 10 -4 16 -18 16 -35 0 -44 35 -82 75 -82
50 0 85 46 85 111 0 55 10 46 -166 159 -50 32 -103 73 -117 90 -26 31 -27 35
-27 165 0 146 8 179 49 194 43 15 306 13 345 -3z"/>
<path d="M3807 1103 c-4 -3 -7 -222 -7 -485 l0 -478 130 0 130 0 0 138 c0 76
3 142 7 145 3 4 12 2 20 -4 10 -9 13 -46 13 -146 l0 -134 128 3 127 3 3 181 2
182 -45 55 c-25 31 -45 62 -45 69 0 7 21 35 45 61 l45 48 0 179 c0 211 15 192
-150 188 l-105 -3 -5 -135 c-4 -118 -7 -135 -22 -138 -16 -3 -18 8 -18 131 0
114 -2 136 -16 141 -21 8 -229 8 -237 -1z m201 -235 c2 -133 6 -178 15 -178 6
0 38 30 70 66 l57 65 0 109 c0 95 2 109 18 114 27 7 122 0 130 -10 4 -5 5 -71
2 -146 l-5 -136 -52 -57 c-29 -31 -53 -60 -53 -64 0 -4 25 -36 55 -71 l56 -64
-3 -146 -3 -145 -77 -3 -78 -3 0 118 0 118 -60 64 c-33 36 -63 61 -67 57 -4
-4 -7 -84 -8 -179 l0 -172 -72 -3 -73 -3 0 426 0 426 73 -3 72 -3 3 -177z"/>
<path d="M4872 1094 c-19 -10 -44 -33 -58 -53 -23 -34 -24 -43 -24 -192 l0
-157 44 -48 c24 -27 61 -58 82 -69 22 -11 72 -42 112 -69 66 -44 72 -51 72
-82 0 -23 -6 -37 -16 -41 -19 -7 -34 13 -34 48 0 17 -8 30 -22 38 -13 6 -36
20 -53 31 -16 11 -39 24 -50 30 -11 6 -33 19 -50 30 -40 27 -68 39 -77 33 -5
-2 -8 -75 -8 -162 0 -180 7 -207 67 -261 l38 -35 167 -3 c158 -3 170 -2 214
19 82 41 89 61 89 234 0 103 -4 157 -13 173 -16 27 -84 80 -188 146 -43 27
-86 58 -96 68 -21 21 -24 61 -4 77 16 14 30 0 40 -41 5 -22 60 -67 121 -98 24
-12 100 -66 103 -72 2 -5 10 -8 18 -8 12 0 14 32 14 188 0 205 -2 215 -65 264
-28 22 -38 23 -210 26 -152 2 -185 0 -213 -14z m377 -57 c53 -27 64 -57 69
-192 3 -90 1 -125 -7 -125 -12 0 -62 29 -71 41 -3 4 -24 17 -47 29 -36 18 -43
27 -43 51 0 37 -40 79 -73 79 -13 0 -36 -9 -51 -21 -23 -18 -26 -27 -26 -85
l0 -64 73 -48 c39 -26 77 -49 82 -52 37 -19 104 -67 128 -93 l28 -30 -3 -138
c-3 -130 -4 -139 -27 -163 -24 -26 -25 -26 -197 -26 -172 0 -173 0 -201 26
-27 25 -28 28 -31 155 -2 83 0 129 7 129 5 0 39 -19 75 -41 59 -37 66 -45 66
-73 0 -67 82 -102 131 -57 23 21 36 91 26 133 -4 14 -24 35 -48 48 -22 14 -48
30 -58 35 -83 50 -163 112 -180 139 -18 29 -21 50 -21 157 0 106 3 128 20 154
11 16 27 33 37 37 32 12 316 9 342 -5z"/>
<path d="M5414 1096 c-3 -8 -4 -146 -2 -307 3 -276 4 -296 23 -321 28 -37 120
-62 195 -54 41 5 61 3 75 -8 29 -21 10 -25 -130 -28 l-120 -3 -3 -117 c-1 -65
1 -118 5 -119 4 0 98 -2 208 -3 229 -3 266 5 304 70 21 35 21 46 19 467 l-3
432 -120 1 c-66 1 -126 -1 -132 -3 -10 -4 -13 -57 -13 -218 0 -210 -5 -244
-32 -217 -7 7 -10 89 -10 220 0 246 16 222 -151 222 -83 0 -109 -3 -113 -14z
m203 -59 c5 -7 7 -93 5 -192 -3 -217 0 -228 70 -233 79 -5 82 3 88 235 l5 197
67 2 c38 1 71 -2 74 -7 3 -6 5 -186 4 -402 -1 -386 -1 -392 -22 -415 -21 -22
-25 -22 -207 -20 l-186 3 -3 58 -3 57 105 0 c98 0 106 2 135 26 27 22 31 32
31 75 l0 49 -128 0 c-125 0 -129 1 -153 26 -24 26 -24 26 -27 281 -2 159 1
258 7 262 18 12 131 9 138 -2z"/>
<path d="M6130 1103 c-36 -14 -71 -47 -85 -80 -20 -48 -21 -290 -1 -336 19
-47 59 -82 162 -143 119 -71 136 -88 132 -127 -2 -21 -9 -33 -21 -35 -17 -4
-21 2 -31 49 -4 18 -24 37 -65 62 -32 21 -62 37 -66 37 -4 0 -24 14 -45 30
-64 51 -66 48 -74 -113 -5 -100 -3 -158 5 -191 12 -50 55 -101 96 -117 13 -5
94 -9 180 -9 177 0 218 12 262 76 23 33 24 42 23 186 -1 132 -3 155 -20 177
-18 26 -129 109 -146 110 -4 1 -25 15 -46 31 -21 17 -42 30 -47 30 -5 0 -20
11 -32 24 -16 17 -22 33 -19 57 4 44 28 44 43 0 6 -20 27 -45 51 -61 95 -67
195 -130 205 -130 7 0 10 60 7 193 -3 217 -7 229 -84 267 -36 18 -59 20 -205
19 -90 0 -171 -3 -179 -6z m353 -67 c56 -23 65 -49 68 -185 1 -66 0 -124 -3
-127 -7 -7 -138 73 -155 95 -7 8 -13 25 -13 37 0 26 -43 64 -72 64 -11 0 -33
-13 -49 -29 -25 -25 -29 -37 -29 -83 l0 -54 68 -44 c263 -170 252 -157 252
-314 0 -124 -11 -165 -49 -186 -11 -6 -91 -10 -186 -10 l-167 0 -27 28 c-26
26 -28 34 -35 150 -3 68 -4 127 0 133 3 6 19 0 37 -14 18 -13 41 -27 53 -31
32 -10 64 -45 64 -70 0 -38 37 -76 74 -76 55 0 76 30 76 106 l0 64 -57 36
c-140 88 -212 140 -227 165 -13 21 -16 56 -16 166 1 142 4 158 45 181 30 17
307 16 348 -2z"/>
<path d="M6647 1103 c-11 -10 -8 -222 3 -243 8 -15 17 -18 46 -13 25 4 39 2
45 -8 5 -8 9 -160 8 -354 l-2 -340 22 -5 c12 -3 78 -4 146 -2 l125 3 2 352 3
352 35 1 c76 3 70 -9 70 128 l0 123 -92 7 c-119 8 -403 8 -411 -1z m444 -68
c11 -8 12 -105 0 -124 -6 -10 -22 -12 -55 -9 -31 4 -49 1 -56 -7 -8 -9 -11
-122 -9 -352 l2 -338 -82 -3 -81 -3 -2 353 -3 353 -55 5 -55 5 -3 55 c-2 38 1
57 11 65 15 10 370 10 388 0z"/>
<path d="M7202 1102 c-10 -7 -12 -111 -10 -488 l3 -479 220 0 220 0 0 125 0
125 -85 0 -85 0 -3 29 c-2 15 -1 39 2 52 6 23 10 24 91 24 l85 0 0 125 0 125
-84 0 c-48 0 -86 4 -88 10 -2 6 -2 30 0 55 l4 44 86 3 87 3 3 119 c2 89 -1
121 -10 128 -17 10 -419 10 -436 0z m386 -66 c9 -9 2 -109 -8 -122 -6 -7 -38
-9 -89 -6 -78 4 -80 4 -86 -19 -3 -13 -5 -64 -3 -114 l3 -90 81 -1 c109 -1
114 -3 114 -59 0 -80 -9 -88 -99 -81 -61 5 -81 3 -90 -8 -8 -9 -11 -48 -9
-112 l3 -99 90 0 90 0 3 -49 c6 -97 15 -92 -170 -91 l-163 1 -3 420 c-1 230 0
423 2 429 4 11 323 11 334 1z"/>
<path d="M7719 1103 c-14 -3 -16 -51 -15 -481 l1 -477 126 -3 126 -3 7 50 c4
27 6 183 6 347 -1 291 4 342 29 295 8 -15 11 -123 11 -354 l-2 -332 79 -5 c43
-3 102 -4 131 -1 l52 3 0 344 c0 337 3 375 32 346 6 -6 9 -137 9 -346 0 -318
1 -336 19 -346 23 -12 237 -14 244 -2 11 18 8 870 -3 890 -6 12 -28 34 -48 49
-36 27 -37 28 -172 25 -103 -2 -144 -6 -167 -19 -31 -16 -36 -15 -84 12 -19
11 -63 14 -195 14 -93 -1 -177 -3 -186 -6z m382 -93 l38 -39 38 34 38 35 134
-3 c130 -2 134 -3 152 -27 17 -23 19 -54 21 -415 l1 -390 -78 0 -78 0 2 327
c2 318 2 327 -18 347 -32 32 -94 29 -121 -6 -20 -26 -21 -35 -19 -347 l1 -321
-73 0 -74 0 -3 331 -2 331 -25 23 c-19 18 -31 21 -58 16 -66 -12 -67 -17 -67
-381 l0 -326 -71 3 -71 3 1 415 c0 228 0 418 1 423 0 4 66 7 147 7 l146 0 38
-40z"/>
</g>
</svg>
