<?xml version="1.0" standalone="no"?>
<!DOCTYPE svg PUBLIC "-//W3C//DTD SVG 20010904//EN"
 "http://www.w3.org/TR/2001/REC-SVG-20010904/DTD/svg10.dtd">
<svg version="1.0" xmlns="http://www.w3.org/2000/svg"
 width="300.000000pt" height="65.000000pt" viewBox="0 0 300.000000 65.000000"
 preserveAspectRatio="xMidYMid meet">
<metadata>
Created by potrace 1.10, written by Peter Selinger 2001-2011
</metadata>
<g transform="translate(0.000000,65.000000) scale(0.100000,-0.100000)"
fill="#000000" stroke="none">
<path d="M90 328 l0 -228 1410 0 1410 0 0 228 0 227 -1410 0 -1410 0 0 -227z
m2786 191 c21 -17 20 -371 0 -388 -11 -9 -344 -12 -1379 -13 -751 0 -1370 3
-1376 7 -16 9 -14 367 2 389 11 14 90 16 742 18 1262 5 1996 0 2011 -13z"/>
<path d="M960 429 c0 -18 8 -19 105 -19 84 0 103 -3 99 -14 -5 -13 21 -30 35
-22 4 3 5 21 3 40 l-4 35 -119 0 c-111 -1 -119 -2 -119 -20z"/>
<path d="M1240 415 c0 -32 3 -36 22 -33 32 4 33 62 1 66 -20 3 -23 -1 -23 -33z"/>
<path d="M1440 415 c0 -30 3 -35 24 -35 21 0 24 5 24 35 0 30 -3 35 -24 35
-21 0 -24 -5 -24 -35z"/>
<path d="M1569 443 c-1 -5 -1 -12 0 -16 1 -5 -8 -11 -19 -14 -29 -8 -29 -73 0
-73 11 0 20 -6 20 -14 0 -16 47 -23 118 -17 28 2 42 8 42 17 0 8 9 14 20 14
16 0 20 7 20 35 0 28 -4 35 -20 35 -13 0 -20 7 -20 20 0 18 -7 20 -80 20 -44
0 -81 -3 -81 -7z m161 -68 l0 -35 -80 0 -80 0 0 35 0 35 80 0 80 0 0 -35z"/>
<path d="M1850 430 c0 -14 -7 -20 -21 -20 -14 0 -19 -5 -17 -17 5 -25 29 -28
35 -4 3 12 13 21 24 21 17 0 19 -9 19 -105 l0 -105 -40 0 c-33 0 -40 -3 -40
-20 0 -18 6 -19 102 -17 89 2 103 4 106 20 3 14 -4 17 -42 17 l-46 0 0 125 0
125 -40 0 c-33 0 -40 -3 -40 -20z"/>
<path d="M2540 430 c0 -13 -7 -20 -20 -20 -19 0 -20 -7 -20 -125 0 -108 2
-125 16 -125 9 0 18 9 21 19 3 11 13 21 24 24 15 4 19 0 19 -19 0 -17 6 -24
20 -24 13 0 20 7 20 18 0 10 3 21 6 25 11 11 34 -5 34 -24 0 -12 7 -19 20 -19
14 0 20 7 20 23 0 31 38 35 42 4 2 -12 11 -23 21 -25 15 -3 17 8 17 122 0 119
-1 126 -20 126 -13 0 -20 7 -20 20 0 19 -7 20 -100 20 -93 0 -100 -1 -100 -20z
m83 -82 c6 -40 2 -48 -24 -48 -12 0 -19 7 -19 20 0 15 -7 20 -25 20 -14 0 -25
6 -25 13 0 21 11 27 51 27 34 0 37 -3 42 -32z m125 -5 c-2 -31 -7 -39 -25 -41
-18 -3 -23 2 -23 17 0 14 -6 21 -19 21 -19 0 -35 23 -24 34 4 3 26 6 50 6 l44
0 -3 -37z m-58 -63 c0 -6 11 -10 25 -10 14 0 25 -5 25 -11 0 -5 -5 -7 -12 -3
-7 5 -9 2 -5 -8 4 -12 -2 -17 -21 -21 -15 -3 -29 -2 -32 1 -8 10 -60 9 -60 -1
0 -12 -52 1 -69 18 -12 12 -12 16 2 29 17 17 37 21 37 8 0 -4 16 -6 35 -4 22
3 35 10 35 18 0 12 4 12 20 4 11 -6 20 -15 20 -20z"/>
<path d="M240 420 c0 -13 -7 -20 -20 -20 -19 0 -20 -7 -20 -120 0 -111 1 -120
19 -120 11 0 21 9 24 21 7 27 42 22 42 -6 0 -28 29 -25 33 3 3 17 9 22 25 20
13 -2 21 -10 19 -17 -3 -16 17 -33 30 -25 4 3 8 14 8 25 0 12 7 19 20 19 13 0
20 -7 20 -20 0 -13 7 -20 20 -20 19 0 20 7 20 124 0 119 -1 124 -20 119 -15
-4 -20 0 -20 16 0 20 -5 21 -100 21 -93 0 -100 -1 -100 -20z m80 -67 c0 -16
-6 -23 -19 -23 -14 0 -18 -5 -14 -20 4 -16 0 -20 -21 -20 -24 0 -26 4 -26 38
0 21 2 41 4 43 3 2 21 4 40 5 31 0 36 -3 36 -23z m120 1 c0 -17 -6 -24 -19
-24 -12 0 -18 -7 -17 -17 0 -12 -7 -19 -21 -21 -21 -3 -23 1 -23 40 l0 43 40
1 c36 1 40 -1 40 -22z m-42 -96 c12 2 22 10 22 18 0 19 16 18 24 -2 7 -19 0
-34 -18 -34 -6 0 -17 -5 -24 -12 -19 -19 -111 -13 -127 8 -14 18 -14 18 -15 0
0 -15 -3 -17 -11 -9 -16 16 -4 43 18 43 10 1 29 7 43 15 23 13 27 12 45 -8 12
-13 29 -21 43 -19z"/>
<path d="M1120 360 c0 -13 -7 -20 -20 -20 -13 0 -20 -7 -20 -20 0 -13 7 -20
20 -20 13 0 20 7 20 19 0 14 8 21 27 23 26 3 26 4 9 21 -23 23 -36 22 -36 -3z"/>
<path d="M1287 373 c-16 -15 -6 -33 18 -33 22 0 25 -4 25 -35 0 -34 1 -35 40
-35 33 0 40 -3 40 -20 0 -13 7 -20 20 -20 13 0 20 7 20 20 0 13 -7 20 -20 20
-16 0 -20 7 -20 35 0 29 4 35 21 35 14 0 19 5 17 17 -5 26 -38 29 -38 4 0 -18
-6 -21 -39 -21 -30 0 -40 4 -44 20 -5 19 -27 27 -40 13z"/>
<path d="M1530 255 c0 -48 2 -55 20 -55 17 0 20 7 20 49 0 45 -10 61 -36 61
-2 0 -4 -25 -4 -55z"/>
<path d="M1737 303 c-4 -3 -7 -28 -7 -55 l0 -48 -79 0 c-58 0 -80 -4 -84 -14
-9 -23 2 -26 85 -26 71 0 78 2 78 20 0 13 7 20 20 20 18 0 20 7 20 55 0 39 -4
55 -13 55 -8 0 -17 -3 -20 -7z"/>
<path d="M1040 286 c0 -9 -8 -16 -20 -16 -13 0 -20 -7 -20 -20 0 -13 7 -20 20
-20 13 0 20 7 20 20 0 15 7 20 26 20 31 0 28 23 -4 28 -15 2 -22 -2 -22 -12z"/>
<path d="M1290 251 c0 -15 6 -21 21 -21 25 0 22 33 -4 38 -12 2 -17 -3 -17
-17z"/>
<path d="M960 195 l0 -35 126 0 c114 0 125 2 122 18 -3 15 -16 17 -103 18 -85
1 -100 3 -103 17 -2 9 -12 17 -23 17 -15 0 -19 -7 -19 -35z"/>
<path d="M1240 196 c0 -32 3 -36 25 -36 22 0 24 4 22 33 -2 24 -8 33 -25 35
-19 3 -22 -1 -22 -32z"/>
<path d="M1446 208 c-10 -39 -7 -48 19 -48 22 0 25 4 25 35 0 28 -4 35 -19 35
-11 0 -21 -9 -25 -22z"/>
</g>
</svg>
