<?xml version="1.0" standalone="no"?>
<!DOCTYPE svg PUBLIC "-//W3C//DTD SVG 20010904//EN"
 "http://www.w3.org/TR/2001/REC-SVG-20010904/DTD/svg10.dtd">
<svg version="1.0" xmlns="http://www.w3.org/2000/svg"
 width="430.000000pt" height="290.000000pt" viewBox="0 0 430.000000 290.000000"
 preserveAspectRatio="xMidYMid meet">
<metadata>
Created by potrace 1.13, written by Peter Selinger 2001-2015
</metadata>
<g transform="translate(0.000000,290.000000) scale(0.100000,-0.100000)"
fill="#000000" stroke="none">
<path d="M917 2866 c-47 -17 -71 -38 -91 -81 -14 -29 -16 -139 -16 -965 0
-1019 -4 -955 60 -1015 l31 -30 1156 -3 1155 -2 38 21 c21 12 47 38 59 59 l21
38 -2 944 -3 943 -23 31 c-13 16 -37 39 -55 50 -31 18 -64 19 -1162 21 -936 2
-1137 0 -1168 -11z m2323 -38 c18 -13 41 -39 51 -58 18 -33 19 -78 19 -945 l0
-911 -22 -44 c-44 -86 55 -80 -1218 -80 -1273 0 -1174 -6 -1218 80 l-22 45 2
920 c3 868 4 922 21 948 10 16 32 37 50 47 31 19 60 20 1168 20 l1136 0 33
-22z"/>
<path d="M1153 2700 c-61 -25 -123 -83 -155 -148 -35 -72 -32 -179 7 -251 56
-102 142 -151 264 -151 144 0 255 99 277 245 l6 46 -142 -3 -143 -3 -1 -42 -1
-42 90 -3 90 -3 -45 -46 c-78 -80 -176 -88 -260 -20 -54 44 -75 87 -75 156 0
74 26 121 92 164 37 25 57 31 97 31 56 0 121 -26 150 -59 15 -16 31 -21 68
-21 26 0 48 4 48 9 0 24 -70 97 -119 124 -71 40 -171 47 -248 17z"/>
<path d="M1890 2710 l-45 -5 -112 -170 c-63 -93 -143 -214 -178 -267 l-65 -98
59 0 58 0 37 55 36 55 85 0 85 0 0 -55 0 -55 50 0 50 0 0 269 c0 149 -3 271
-7 273 -5 2 -28 1 -53 -2z"/>
<path d="M2557 2531 l-122 -183 -3 181 -2 181 -49 0 -49 0 -179 -270 -180
-270 58 0 58 0 116 175 c64 96 120 177 125 180 4 3 7 -76 7 -175 l-2 -180 50
0 50 0 120 182 120 182 3 -182 2 -182 50 0 50 0 0 269 0 269 -50 4 -51 3 -122
-184z"/>
<path d="M2988 2712 l-138 -3 0 -269 0 -270 145 0 145 0 0 45 0 45 -95 0 -95
0 0 65 0 65 95 0 95 0 0 45 0 45 -95 0 -95 0 0 70 0 70 95 0 95 0 0 44 c0 25
-3 46 -7 48 -5 2 -70 2 -145 0z"/>
<path d="M1932 2062 c-51 -48 -55 -121 -10 -169 l22 -24 -33 -31 c-119 -111
-51 -293 109 -292 66 0 111 22 143 69 l23 34 55 -49 54 -50 28 33 28 32 -64
60 -64 60 27 61 c48 106 48 104 -4 104 -44 0 -45 -1 -68 -50 l-23 -49 -34 28
-35 29 27 31 c36 43 43 90 22 135 -22 46 -60 66 -123 66 -41 0 -55 -5 -80 -28z
m187 -352 c1 -3 -13 -22 -30 -43 -25 -30 -37 -37 -67 -37 -48 0 -82 32 -82 78
0 27 8 42 36 69 l36 34 53 -48 c29 -26 53 -50 54 -53z"/>
<path d="M2435 1477 c-83 -33 -138 -85 -170 -160 -19 -45 -21 -150 -4 -207 19
-65 107 -151 178 -175 114 -38 248 2 320 96 l34 44 -50 3 c-42 2 -59 -2 -102
-29 -69 -43 -131 -49 -190 -17 -87 47 -125 126 -107 223 9 47 76 120 123 136
52 17 126 6 173 -25 35 -23 50 -27 98 -24 l57 3 -55 56 c-38 38 -71 61 -104
72 -56 19 -157 21 -201 4z"/>
<path d="M970 1200 l0 -270 49 0 50 0 116 175 c63 96 120 177 125 180 6 4 10
-60 10 -177 l0 -183 47 3 48 4 160 241 c88 132 168 253 178 269 l19 28 -59 0
-59 0 -119 -182 -120 -182 -3 182 -2 182 -49 0 -49 0 -116 -174 c-64 -96 -120
-177 -124 -180 -4 -2 -6 76 -4 175 l3 179 -50 0 -51 0 0 -270z"/>
<path d="M1685 1258 c-77 -116 -157 -238 -178 -270 l-37 -58 57 0 58 0 39 60
39 61 81 -3 81 -3 5 -59 5 -59 45 0 45 0 3 271 2 272 -52 0 -53 0 -140 -212z"/>
<path d="M1960 1425 l0 -45 55 0 55 0 0 -225 0 -225 45 0 45 0 0 225 0 225 55
0 55 0 0 45 0 45 -155 0 -155 0 0 -45z"/>
<path d="M2810 1200 l0 -270 50 0 50 0 0 115 0 115 80 0 80 0 0 -115 0 -115
50 0 50 0 0 270 0 270 -50 0 -50 0 0 -105 0 -105 -80 0 -80 0 0 105 0 105 -50
0 -50 0 0 -270z"/>
<path d="M374 346 c-3 -7 -4 -78 -2 -157 l3 -144 163 -3 162 -2 0 160 0 160
-160 0 c-128 0 -162 -3 -166 -14z m314 -54 c3 -46 0 -54 -17 -59 -19 -5 -19
-5 2 -40 l20 -35 -34 7 c-19 3 -42 9 -51 11 -10 3 -18 1 -18 -5 0 -10 75 -28
93 -23 4 1 7 -19 5 -45 l-3 -48 -78 -3 c-73 -3 -78 -1 -87 20 -8 21 -11 21 -9
1 2 -24 -106 -31 -115 -7 -8 22 -8 269 1 278 4 3 70 5 147 4 l141 -3 3 -53z"/>
<path d="M774 347 c-2 -7 -3 -78 -2 -157 l3 -145 160 0 160 0 0 155 0 155
-158 3 c-123 2 -159 0 -163 -11z m304 -20 c2 -10 -7 -26 -20 -37 -28 -23 -39
-25 -32 -5 4 8 1 15 -5 15 -15 0 -14 -50 2 -51 6 0 2 -4 -11 -10 -34 -13 -24
-39 25 -64 31 -17 39 -25 30 -34 -15 -15 -27 -14 -27 4 0 9 -9 15 -24 15 -24
0 -39 13 -42 35 0 6 -2 15 -2 22 -3 16 -40 12 -47 -5 -8 -20 60 -82 91 -82 21
0 25 -3 18 -18 -4 -9 -8 -27 -8 -39 -1 -22 -4 -23 -117 -23 -113 0 -117 1
-123 23 -8 29 -8 241 0 261 6 14 25 16 148 14 126 -3 141 -5 144 -21z"/>
<path d="M800 291 l0 -49 75 -4 75 -3 0 53 0 52 -75 0 -75 0 0 -49z"/>
<path d="M1164 347 c-2 -7 -3 -78 -2 -157 l3 -145 160 0 160 0 0 155 0 155
-158 3 c-123 2 -159 0 -163 -11z m308 -63 c1 -36 1 -68 -1 -70 -2 -2 -12 6
-22 18 -12 13 -19 16 -19 8 0 -7 -3 -11 -6 -7 -14 14 -29 -18 -26 -54 3 -24 0
-39 -7 -39 -6 0 -11 8 -11 18 0 9 -10 33 -21 52 -14 22 -17 36 -10 38 16 5 14
22 -3 22 -8 0 -17 6 -20 13 -5 10 -7 10 -12 0 -3 -7 -12 -13 -20 -13 -8 0 -14
-4 -14 -10 0 -5 5 -10 10 -10 6 0 2 -17 -9 -37 -11 -21 -23 -47 -27 -58 -6
-18 -7 -17 -16 8 -7 18 -6 32 0 40 7 8 6 16 -4 25 -8 7 -14 9 -14 5 0 -4 -5
-1 -10 7 -6 10 -10 11 -10 3 0 -7 -4 -13 -10 -13 -6 0 -10 27 -10 60 l0 60
144 0 144 0 4 -66z m0 -171 l-4 -63 -144 0 -144 0 0 28 c0 15 -3 37 -6 50 -4
13 -2 22 5 22 6 0 11 -6 11 -14 0 -20 32 -26 138 -26 79 0 95 3 112 20 11 11
20 30 20 42 0 12 4 18 8 13 4 -6 6 -38 4 -72z"/>
<path d="M1554 347 c-2 -7 -3 -78 -2 -157 l3 -145 160 0 160 0 0 155 0 155
-158 3 c-123 2 -159 0 -163 -11z m304 -9 c17 -17 17 -259 0 -276 -12 -12 -188
-18 -188 -6 0 4 8 13 18 21 16 13 15 14 -7 9 -17 -3 -29 2 -42 17 -13 15 -18
17 -19 8 0 -8 10 -25 22 -39 l23 -23 -45 3 -45 3 -2 70 c-3 62 -1 68 11 52 9
-12 15 -14 18 -6 3 9 9 9 27 -1 19 -10 22 -9 19 1 -3 8 -21 18 -41 22 l-37 9
0 67 c0 37 3 71 7 74 12 13 268 8 281 -5z"/>
<path d="M1645 326 c-71 -32 -67 -115 6 -131 27 -6 29 -9 23 -46 -5 -31 -3
-40 11 -45 22 -9 65 6 79 28 13 22 -20 61 -46 55 -27 -7 -22 8 7 21 14 7 30
23 35 37 11 29 35 33 44 8 5 -11 -2 -24 -21 -39 -34 -28 -26 -30 22 -7 40 19
44 33 15 51 -11 7 -20 21 -20 33 0 15 -6 20 -22 18 -13 -2 -37 5 -55 14 -38
20 -39 20 -78 3z"/>
<path d="M1950 200 l0 -160 160 0 160 0 0 160 0 160 -160 0 -160 0 0 -160z
m125 129 c-22 -18 -26 -27 -21 -53 3 -17 18 -41 33 -53 l27 -22 -45 6 c-24 3
-50 11 -58 17 -11 9 -13 8 -8 -4 4 -8 10 -23 13 -32 7 -20 20 -23 29 -8 7 12
45 14 45 3 -2 -29 -72 -65 -85 -43 -3 5 -10 10 -16 10 -16 0 -10 -26 11 -45
18 -16 20 -16 26 -1 15 38 92 7 79 -33 -6 -20 -12 -22 -73 -19 l-67 3 -3 134
c-2 90 1 138 9 147 7 9 32 14 72 14 l60 0 -28 -21z m180 -129 l0 -145 -42 -3
c-64 -5 -83 9 -77 60 5 53 20 70 39 44 13 -17 14 -17 35 2 l21 19 -41 7 c-23
3 -46 4 -51 0 -6 -3 -9 2 -8 12 2 11 1 24 -3 29 -12 20 8 38 29 27 21 -12 63
-5 63 9 0 5 -4 9 -10 9 -5 0 -10 7 -10 15 0 8 6 15 14 15 8 0 18 5 22 11 4 7
-2 10 -17 8 -14 -2 -35 4 -49 14 l-25 18 55 -3 55 -3 0 -145z"/>
<path d="M2344 347 c-2 -7 -3 -78 -2 -157 l3 -145 160 0 160 0 0 155 0 155
-158 3 c-123 2 -159 0 -163 -11z m176 -8 c-14 -6 -34 -8 -44 -5 -11 3 -26 0
-33 -6 -20 -16 -16 -49 7 -55 22 -6 27 -32 9 -50 -6 -6 -18 -9 -27 -6 -12 5
-14 1 -10 -15 4 -13 -1 -27 -13 -38 -10 -9 -19 -26 -19 -37 0 -26 28 -57 52
-57 10 0 18 -4 18 -10 0 -13 -87 -13 -95 1 -8 12 -7 268 1 281 3 4 44 8 92 7
68 0 82 -2 62 -10z m125 -139 l0 -145 -82 -3 c-88 -3 -113 11 -40 23 49 8 67
20 67 46 0 10 9 21 20 24 11 3 20 13 20 21 0 16 -21 19 -37 3 -7 -7 -11 5 -12
44 -1 48 2 55 24 65 23 11 26 40 4 43 -19 3 -25 5 -44 17 -17 10 -13 12 30 10
l50 -3 0 -145z"/>
<path d="M2734 347 c-2 -7 -3 -78 -2 -157 l3 -145 160 0 160 0 0 155 0 155
-158 3 c-123 2 -159 0 -163 -11z m314 -184 l-3 -108 -40 -3 c-30 -2 -36 0 -25
8 11 7 -13 10 -80 10 -65 0 -90 -3 -80 -10 11 -7 5 -10 -23 -10 -43 0 -50 10
-45 66 3 35 4 37 20 21 20 -21 27 -21 47 -2 12 10 31 13 74 8 31 -3 57 -10 57
-14 0 -15 67 -10 79 5 10 12 8 17 -11 27 -13 6 -27 18 -31 25 -4 8 -15 14 -22
14 -20 0 -19 13 6 44 14 18 30 26 50 26 l30 0 -3 -107z"/>
<path d="M3124 346 c-3 -7 -4 -78 -2 -157 l3 -144 160 0 160 0 0 155 0 155
-158 3 c-128 2 -158 0 -163 -12z m300 -2 c12 -5 16 -20 16 -60 0 -30 -5 -54
-10 -54 -15 0 -23 27 -15 48 7 19 4 28 -9 24 -5 -2 -17 5 -27 14 -16 14 -21
15 -35 3 -10 -8 -33 -14 -53 -14 -31 0 -36 -3 -37 -24 -1 -13 -7 -27 -14 -31
-7 -4 -10 -15 -7 -23 3 -9 0 -17 -6 -20 -19 -7 -37 3 -37 22 0 9 6 23 13 30
10 10 8 15 -7 27 -11 8 -28 14 -38 14 -18 0 -25 29 -11 43 8 9 256 9 277 1z
m12 -281 c-5 -11 -34 -13 -148 -11 l-143 3 -3 26 c-2 20 4 32 26 48 53 37 78
19 36 -26 l-26 -28 38 -8 c54 -11 63 3 36 59 -27 55 -22 67 12 31 14 -15 33
-27 42 -27 15 0 15 3 -4 23 -36 38 -27 64 10 30 28 -25 86 -21 106 9 17 22 17
21 20 -46 2 -38 1 -75 -2 -83z"/>
<path d="M3524 347 c-2 -7 -3 -78 -2 -157 l3 -145 154 -3 c114 -2 156 1 162
10 9 14 11 271 3 293 -8 21 -312 22 -320 2z m304 -80 c3 -75 2 -77 -17 -66
-10 7 -17 19 -14 26 3 7 -13 31 -35 53 -34 35 -46 40 -85 40 -24 0 -64 -7 -87
-15 -23 -8 -46 -12 -51 -9 -11 6 -12 38 -2 48 4 3 70 5 147 4 l141 -3 3 -78z
m-238 -4 c3 -2 -6 -12 -19 -22 -16 -12 -22 -24 -18 -35 4 -9 2 -25 -5 -35 -20
-33 -3 -49 59 -56 32 -4 83 -19 113 -33 l55 -27 -109 -3 c-61 -1 -116 0 -123
2 -10 4 -13 34 -13 116 l0 110 28 -6 c15 -4 29 -9 32 -11z"/>
</g>
</svg>
