<?xml version="1.0" standalone="no"?>
<!DOCTYPE svg PUBLIC "-//W3C//DTD SVG 20010904//EN"
 "http://www.w3.org/TR/2001/REC-SVG-20010904/DTD/svg10.dtd">
<svg version="1.0" xmlns="http://www.w3.org/2000/svg"
 width="267.000000pt" height="131.000000pt" viewBox="0 0 267.000000 131.000000"
 preserveAspectRatio="xMidYMid meet">

<g transform="translate(0.000000,131.000000) scale(0.100000,-0.100000)"
fill="#000000" stroke="none">
<path d="M63 1249 l-63 -61 0 -164 c0 -127 3 -164 13 -164 7 0 35 -22 62 -50
48 -49 51 -50 107 -50 l58 0 0 90 c0 89 0 90 -25 90 -25 0 -25 0 -25 95 l0 95
65 0 65 0 0 -60 0 -60 90 0 90 0 0 88 0 88 -63 62 -63 62 -124 0 -125 0 -62
-61z"/>
<path d="M560 902 l0 -408 68 -67 c66 -66 69 -67 120 -67 l52 0 0 90 c0 89 0
90 -25 90 l-25 0 0 385 0 385 -95 0 -95 0 0 -408z"/>
<path d="M890 925 l0 -385 -30 0 -30 0 0 -90 0 -90 58 0 58 0 67 68 67 68 0
407 0 407 -95 0 -95 0 0 -385z"/>
<path d="M1140 835 l0 -475 95 0 95 0 0 475 0 475 -95 0 -95 0 0 -475z"/>
<path d="M1360 1220 l0 -90 40 0 40 0 0 -135 0 -135 -40 0 -40 0 0 -90 0 -90
68 0 68 0 67 68 67 68 0 180 0 180 -68 67 -68 67 -67 0 -67 0 0 -90z"/>
<path d="M1690 835 l0 -475 205 0 205 0 0 90 0 90 -110 0 -110 0 0 295 0 295
110 0 110 0 0 90 0 90 -205 0 -205 0 0 -475z"/>
<path d="M2160 835 l0 -475 95 0 95 0 0 475 0 475 -95 0 -95 0 0 -475z"/>
<path d="M2390 1220 l0 -90 45 0 45 0 0 -105 0 -105 -45 0 -45 0 0 -90 0 -90
45 0 45 0 0 -190 0 -190 95 0 95 0 0 182 0 182 -52 53 -52 53 52 53 52 53 0
120 0 120 -68 67 -68 67 -72 0 -72 0 0 -90z"/>
<path d="M1920 860 l0 -90 70 0 70 0 0 90 0 90 -70 0 -70 0 0 -90z"/>
<path d="M270 850 c0 -89 0 -90 25 -90 l25 0 0 -110 0 -110 -70 0 -70 0 0 65
0 65 -90 0 -90 0 0 -88 0 -88 68 -67 68 -67 115 0 115 0 66 68 67 67 2 152 c2
84 0 156 -4 159 -4 4 -7 25 -7 46 l0 38 -43 0 c-33 0 -49 6 -67 25 -18 19 -34
25 -67 25 l-43 0 0 -90z"/>
<path d="M385 245 c-23 -22 -25 -32 -25 -110 0 -78 2 -88 25 -110 23 -24 28
-25 175 -25 l150 0 0 80 0 80 -85 0 c-84 0 -85 0 -85 -25 0 -24 3 -25 55 -25
54 0 55 0 55 -30 l0 -30 -110 0 -110 0 0 85 0 85 140 0 140 0 0 25 0 25 -150
0 c-147 0 -152 -1 -175 -25z"/>
<path d="M770 135 l0 -135 30 0 c30 0 30 1 30 55 l0 55 50 0 c35 0 50 -4 50
-13 0 -16 41 -57 57 -57 5 0 18 -9 28 -20 13 -14 31 -20 64 -20 l46 0 -53 46
c-55 48 -63 64 -33 64 10 0 30 9 45 21 33 26 37 88 6 119 -18 18 -33 20 -170
20 l-150 0 0 -135z m270 55 l0 -30 -100 0 -100 0 0 30 0 30 100 0 100 0 0 -30z"/>
<path d="M1207 135 l-67 -135 35 0 c34 0 36 2 90 110 33 66 61 110 70 110 9 0
37 -44 70 -110 54 -108 56 -110 90 -110 l35 0 -67 135 -68 135 -60 0 -60 0
-68 -135z"/>
<path d="M1560 135 l0 -135 35 0 35 0 0 55 0 55 105 0 105 0 0 25 0 25 -105 0
-105 0 0 30 0 30 125 0 125 0 0 25 0 25 -160 0 -160 0 0 -135z"/>
<path d="M1910 256 c0 -8 5 -18 10 -21 6 -3 10 -31 10 -61 l0 -54 42 0 42 0
-59 -60 -59 -60 45 0 c41 0 49 5 94 50 51 51 65 60 65 37 0 -7 17 -30 38 -50
34 -33 43 -37 92 -37 l54 0 -69 70 -69 70 64 65 64 65 -44 0 c-39 0 -50 -5
-92 -47 -47 -46 -48 -46 -68 -28 -11 10 -20 26 -20 37 0 11 -7 18 -19 18 -11
0 -23 5 -26 10 -10 16 -95 13 -95 -4z m120 -116 c0 -5 -4 -10 -10 -10 -5 0
-10 5 -10 10 0 6 5 10 10 10 6 0 10 -4 10 -10z"/>
</g>
</svg>
