<?xml version="1.0" standalone="no"?>
<!DOCTYPE svg PUBLIC "-//W3C//DTD SVG 20010904//EN"
 "http://www.w3.org/TR/2001/REC-SVG-20010904/DTD/svg10.dtd">
<svg version="1.0" xmlns="http://www.w3.org/2000/svg"
 width="300.000000pt" height="128.000000pt" viewBox="0 0 300.000000 128.000000"
 preserveAspectRatio="xMidYMid meet">
<metadata>
Created by potrace 1.10, written by Peter Selinger 2001-2011
</metadata>
<g transform="translate(0.000000,128.000000) scale(0.100000,-0.100000)"
fill="#000000" stroke="none">
<path d="M370 868 c-39 -14 -71 -18 -108 -14 -35 3 -50 1 -46 -6 9 -14 153 -5
183 11 11 7 21 9 21 6 0 -11 -72 -120 -98 -147 -14 -15 -22 -31 -18 -35 10
-10 39 23 90 107 43 70 56 102 39 99 -5 -1 -33 -10 -63 -21z"/>
<path d="M434 808 c-16 -19 -16 -20 -1 -9 29 23 29 7 2 -54 -14 -32 -25 -59
-25 -62 0 -2 16 8 35 23 20 15 38 24 42 21 3 -4 17 8 29 25 34 45 20 48 -24 5
-21 -20 -41 -37 -44 -37 -4 0 2 20 13 45 27 62 11 88 -27 43z"/>
<path d="M781 772 c-11 -27 -57 -62 -80 -62 -16 0 -13 21 6 42 9 10 13 21 9
26 -4 4 -15 -2 -25 -14 -26 -33 -68 -56 -89 -50 -10 4 -36 -1 -56 -9 -31 -13
-40 -14 -53 -3 -14 11 -15 11 -11 -2 7 -22 42 -24 79 -4 23 11 34 13 37 5 2
-7 13 -6 34 5 23 12 33 13 44 3 13 -11 41 -9 76 6 15 6 14 1 -4 -44 l-22 -51
-65 0 c-61 -1 -64 -2 -42 -14 42 -23 42 -46 -1 -102 -39 -52 -47 -77 -27 -89
13 -9 46 21 66 59 8 15 18 24 23 20 4 -5 24 -54 45 -109 20 -55 38 -102 40
-103 2 -2 8 11 14 30 28 95 104 275 122 291 21 17 20 17 -32 16 -47 0 -51 -2
-31 -12 14 -6 21 -17 19 -26 -13 -40 -76 -213 -79 -217 -2 -2 -20 37 -40 86
l-35 89 27 58 c39 82 81 203 71 203 -5 0 -14 -13 -20 -28z m-73 -195 c-7 -14
-13 -17 -16 -9 -6 19 6 44 18 37 7 -4 6 -14 -2 -28z m-38 -54 c0 -20 -65 -101
-73 -93 -7 6 55 110 65 110 5 0 8 -8 8 -17z"/>
<path d="M2505 723 c-42 -42 -41 -87 6 -215 16 -43 26 -85 23 -93 -10 -24 4
-18 66 30 66 50 100 93 100 123 0 26 -48 65 -72 59 -14 -4 -18 1 -18 25 0 19
-10 40 -29 59 -33 33 -52 36 -76 12z m71 -27 c8 -14 15 -42 14 -63 -3 -54 -1
-60 11 -40 12 21 52 22 69 2 20 -24 4 -56 -54 -114 -31 -30 -57 -53 -58 -50
-2 2 -18 48 -37 102 -34 99 -36 142 -10 174 18 20 47 15 65 -11z"/>
<path d="M437 620 c-3 -8 -10 -28 -15 -45 -38 -112 -104 -269 -119 -281 -16
-12 -13 -13 30 -14 26 0 47 5 47 10 0 6 -7 10 -15 10 -18 0 -19 16 -4 59 11
32 12 32 72 29 59 -3 61 -4 72 -38 12 -32 11 -37 -8 -52 -21 -16 -19 -16 43
-17 l64 0 -26 22 c-23 19 -63 116 -131 317 -4 13 -5 13 -10 0z m22 -139 c11
-32 21 -61 21 -65 0 -3 -23 -6 -51 -6 -45 0 -50 2 -44 18 4 9 15 38 24 64 9
26 19 48 22 48 4 0 16 -26 28 -59z"/>
<path d="M1019 607 c-71 -47 -99 -158 -60 -243 27 -59 63 -84 122 -84 91 0
145 76 137 191 -5 66 -24 100 -78 137 -42 28 -78 28 -121 -1z m116 -21 c47
-47 58 -173 21 -243 -17 -34 -64 -58 -94 -49 -36 12 -62 52 -71 107 -10 58 0
134 21 168 27 44 87 53 123 17z"/>
<path d="M2298 607 c-56 -52 -43 -112 34 -162 68 -44 88 -66 88 -97 0 -35 -39
-63 -75 -54 -35 9 -65 41 -65 71 0 14 -4 25 -10 25 -5 0 -9 -23 -7 -52 l2 -53
69 -3 c59 -3 71 0 92 19 57 54 37 115 -60 178 -69 45 -84 68 -66 101 27 51
101 27 126 -41 l12 -34 1 55 c1 50 -1 55 -21 56 -13 1 -39 5 -58 9 -29 6 -40
3 -62 -18z"/>
<path d="M68 608 c21 -11 22 -15 22 -160 0 -141 -1 -148 -20 -148 -11 0 -20
-4 -20 -9 0 -6 27 -10 60 -10 59 1 79 12 40 22 -18 5 -20 14 -20 76 l0 71 33
0 c39 0 53 -9 60 -35 2 -11 5 7 6 40 1 54 0 58 -12 35 -9 -19 -22 -26 -50 -28
l-37 -3 0 70 0 71 50 0 c42 0 52 -4 66 -25 21 -32 28 -26 19 14 l-7 31 -106
-1 c-85 0 -102 -3 -84 -11z"/>
<path d="M1263 613 c28 -7 37 -45 37 -152 0 -126 -7 -161 -31 -161 -11 0 -19
-4 -19 -9 0 -6 29 -10 65 -10 36 0 65 2 65 5 0 2 -11 9 -25 14 -23 9 -25 14
-25 75 0 93 21 89 90 -15 l53 -80 98 1 c93 1 125 10 79 22 -19 5 -20 14 -20
150 0 139 1 144 23 155 18 9 11 11 -43 11 -49 0 -59 -3 -42 -9 21 -9 22 -13
22 -159 0 -145 -1 -149 -22 -154 -36 -10 -70 14 -117 82 -43 61 -44 64 -25 77
52 36 66 72 43 113 -22 39 -56 51 -144 50 -44 -1 -72 -3 -62 -6z m152 -33 c24
-26 23 -76 -1 -99 -10 -10 -34 -21 -51 -25 l-33 -5 0 68 c0 37 3 71 7 74 14
14 61 6 78 -13z"/>
<path d="M1700 601 c0 -11 -3 -26 -6 -35 -10 -25 10 -19 21 7 7 16 20 23 48
25 l37 3 0 -150 c0 -144 -1 -151 -20 -151 -11 0 -20 -4 -20 -9 0 -6 29 -10 65
-10 36 0 65 2 65 5 0 2 -11 9 -25 14 l-25 10 0 145 0 145 33 0 c37 0 49 -7 65
-35 10 -18 11 -16 12 18 l0 37 -125 0 c-117 0 -125 -1 -125 -19z"/>
<path d="M1988 610 c21 -9 22 -13 22 -160 0 -143 -1 -150 -20 -150 -11 0 -20
-4 -20 -9 0 -5 49 -10 110 -10 l110 -1 15 37 c9 20 14 41 11 47 -2 6 -8 -1
-14 -16 -15 -36 -44 -50 -100 -46 l-47 3 -3 73 -3 73 48 -3 c39 -2 50 -7 60
-28 12 -23 13 -20 13 35 0 55 -1 58 -13 35 -10 -21 -21 -26 -60 -28 l-47 -3 0
70 0 71 60 0 c55 0 61 -2 70 -25 13 -35 20 -31 20 10 l0 35 -117 -1 c-81 0
-111 -3 -95 -9z"/>
</g>
</svg>
