<?xml version="1.0" standalone="no"?>
<!DOCTYPE svg PUBLIC "-//W3C//DTD SVG 20010904//EN"
 "http://www.w3.org/TR/2001/REC-SVG-20010904/DTD/svg10.dtd">
<svg version="1.0" xmlns="http://www.w3.org/2000/svg"
 width="300.000000pt" height="300.000000pt" viewBox="0 0 300.000000 300.000000"
 preserveAspectRatio="xMidYMid meet">
<metadata>
Created by potrace 1.10, written by Peter Selinger 2001-2011
</metadata>
<g transform="translate(0.000000,300.000000) scale(0.100000,-0.100000)"
fill="#000000" stroke="none">
<path d="M620 2375 c0 -8 7 -15 15 -15 8 0 15 7 15 15 0 8 -7 15 -15 15 -8 0
-15 -7 -15 -15z"/>
<path d="M684 2319 c-10 -17 13 -36 27 -22 12 12 4 33 -11 33 -5 0 -12 -5 -16
-11z"/>
<path d="M190 2275 c0 -8 7 -15 15 -15 8 0 15 7 15 15 0 8 -7 15 -15 15 -8 0
-15 -7 -15 -15z"/>
<path d="M620 2245 c0 -8 7 -15 15 -15 8 0 15 7 15 15 0 8 -7 15 -15 15 -8 0
-15 -7 -15 -15z"/>
<path d="M1770 2245 c0 -8 7 -15 15 -15 8 0 15 7 15 15 0 8 -7 15 -15 15 -8 0
-15 -7 -15 -15z"/>
<path d="M154 2219 c-8 -14 18 -31 30 -19 9 9 0 30 -14 30 -5 0 -12 -5 -16
-11z"/>
<path d="M290 2175 c0 -9 7 -15 16 -13 11 2 18 -5 20 -20 4 -21 1 -23 -31 -20
l-36 3 0 -294 0 -295 28 0 c20 0 28 5 27 17 -1 11 6 17 18 17 14 0 18 5 14 15
-4 10 1 15 14 15 18 0 20 7 20 71 l0 71 135 -4 c105 -3 135 -1 135 9 0 7 -9
13 -20 13 -13 0 -20 7 -20 20 0 12 7 20 18 20 15 0 17 16 18 180 1 144 -2 180
-13 180 -7 0 -13 -9 -13 -20 0 -13 -7 -20 -20 -20 -16 0 -20 7 -20 35 l0 35
-145 0 c-124 0 -145 -2 -145 -15z m102 -44 c1 -44 18 -39 18 6 0 20 3 33 8 29
4 -4 7 -13 7 -19 0 -6 11 -11 25 -11 14 0 25 5 25 11 0 6 3 15 8 19 4 4 7 -2
7 -14 0 -12 5 -22 10 -22 6 0 10 10 10 22 0 21 15 17 15 -5 0 -7 9 -11 19 -9
15 3 18 -1 13 -17 -4 -18 0 -21 31 -22 21 -1 30 -3 21 -6 -10 -2 -16 -15 -16
-34 0 -21 4 -28 14 -25 7 3 13 1 13 -4 0 -6 -7 -10 -15 -10 -8 0 -15 -5 -15
-11 0 -6 7 -9 15 -5 12 4 15 -2 14 -27 -1 -23 -3 -26 -6 -9 -7 38 -19 24 -20
-24 -1 -35 2 -44 13 -40 8 3 14 1 14 -4 0 -6 -7 -10 -15 -10 -8 0 -15 -5 -15
-11 0 -6 7 -9 15 -5 9 3 15 0 15 -9 0 -9 -6 -12 -16 -8 -10 4 -15 1 -14 -8 7
-48 0 -59 -36 -59 -28 0 -35 -3 -30 -15 3 -8 1 -15 -4 -15 -6 0 -10 7 -10 15
0 8 -4 15 -10 15 -5 0 -10 -7 -10 -15 0 -8 -4 -15 -10 -15 -5 0 -7 7 -4 15 5
11 -1 15 -25 15 -23 0 -29 -4 -25 -15 4 -8 1 -15 -5 -15 -6 0 -11 7 -11 15 0
8 -5 15 -10 15 -6 0 -10 -8 -8 -17 2 -14 -4 -18 -29 -17 -18 0 -33 -4 -33 -8
0 -4 7 -8 15 -8 8 0 15 -5 15 -11 0 -6 -7 -9 -15 -5 -9 3 -15 0 -15 -9 0 -9 6
-12 15 -9 8 4 15 1 15 -5 0 -6 -16 -11 -35 -11 -19 0 -35 -5 -35 -11 0 -6 7
-9 15 -5 8 3 25 1 37 -4 18 -7 19 -9 6 -9 -10 -1 -18 -5 -18 -11 0 -5 8 -10
18 -11 13 0 12 -2 -6 -9 -12 -5 -28 -7 -36 -4 -9 4 -16 -3 -19 -18 -2 -13 -4
81 -4 207 0 127 2 220 4 208 8 -39 20 -25 21 23 1 36 -2 45 -13 40 -8 -3 -15
-1 -15 4 0 6 16 10 35 10 29 0 35 4 33 18 -2 10 2 16 10 14 8 -1 16 7 19 18 7
28 14 19 15 -19z"/>
<path d="M420 2109 c0 -5 14 -9 30 -9 17 0 30 4 30 8 0 5 -13 9 -30 10 -16 0
-30 -4 -30 -9z"/>
<path d="M326 2078 c3 -4 12 -8 20 -8 8 0 14 -5 14 -10 0 -6 -6 -10 -13 -8
-24 6 -24 -49 1 -55 14 -4 14 -5 -3 -6 -14 -1 -20 -8 -20 -26 0 -18 5 -25 20
-25 17 0 17 -2 -5 -13 -14 -7 -26 -9 -28 -5 -6 14 -22 9 -22 -6 0 -8 10 -17
23 -19 l22 -4 -22 -2 c-17 -1 -23 -7 -23 -26 0 -22 4 -25 35 -25 28 0 35 -4
35 -20 0 -27 18 -25 23 3 l4 22 2 -22 c1 -28 21 -31 21 -3 0 11 5 20 10 20 6
0 10 -7 8 -16 -2 -11 5 -17 24 -19 21 -3 28 1 31 18 4 22 4 22 6 0 1 -28 21
-31 21 -3 0 16 7 20 36 20 20 0 33 4 29 10 -3 5 -12 7 -20 3 -8 -3 -15 0 -15
6 0 6 9 11 20 11 11 0 20 5 20 10 0 6 -9 10 -21 10 -11 0 -18 4 -14 10 3 5 11
7 18 4 9 -3 13 9 13 40 0 37 -4 46 -21 49 l-20 4 20 2 c18 1 21 8 21 46 0 25
-4 45 -8 45 -4 0 -8 -9 -8 -20 0 -11 -5 -20 -11 -20 -7 0 -9 9 -6 21 5 19 2
20 -108 17 -63 -1 -111 -6 -109 -10z m194 -115 l0 -108 -87 2 c-82 1 -88 3
-89 22 -1 14 5 21 17 21 17 0 19 9 19 85 l0 85 70 0 70 0 0 -107z m-193 -109
c-9 -9 -28 6 -21 18 4 6 10 6 17 -1 6 -6 8 -13 4 -17z"/>
<path d="M290 1815 c0 -8 5 -15 10 -15 6 0 10 7 10 15 0 8 -4 15 -10 15 -5 0
-10 -7 -10 -15z"/>
<path d="M290 1715 c0 -8 5 -15 10 -15 6 0 10 7 10 15 0 8 -4 15 -10 15 -5 0
-10 -7 -10 -15z"/>
<path d="M1770 2175 c0 -8 7 -15 15 -15 8 0 15 7 15 15 0 8 -7 15 -15 15 -8 0
-15 -7 -15 -15z"/>
<path d="M190 2145 c0 -8 7 -15 15 -15 8 0 15 7 15 15 0 8 -7 15 -15 15 -8 0
-15 -7 -15 -15z"/>
<path d="M1047 2154 c-9 -10 2 -24 19 -24 8 0 14 7 14 15 0 15 -21 21 -33 9z"/>
<path d="M1150 2140 c0 -14 -6 -20 -17 -18 -14 2 -18 -6 -20 -44 l-2 -48 65 0
64 0 0 65 0 65 -45 0 c-39 0 -45 -3 -45 -20z m53 -41 c22 -2 22 -2 0 -6 -15
-3 -23 -12 -24 -26 -2 -22 -2 -22 -6 1 -2 12 -12 23 -21 23 -15 1 -15 2 1 6 9
2 18 12 18 21 1 15 2 15 6 0 2 -10 14 -19 26 -19z"/>
<path d="M1810 2072 c0 -45 -3 -52 -17 -50 -16 3 -18 -15 -18 -239 l-1 -243
178 0 178 0 0 45 c0 34 -4 45 -15 45 -10 0 -15 -7 -13 -17 2 -12 -5 -19 -21
-21 -22 -4 -24 -1 -18 32 l6 36 -105 0 c-97 0 -104 1 -104 20 0 14 7 20 21 20
18 0 20 5 18 52 l-3 51 69 -2 70 -2 -3 65 -4 66 -44 0 c-32 0 -44 -4 -44 -15
0 -8 8 -15 19 -15 12 0 18 -7 17 -20 0 -11 -4 -20 -8 -20 -5 0 -15 0 -23 0 -8
0 -15 7 -15 15 0 8 -8 15 -17 15 -16 0 -18 11 -15 118 l3 118 -45 0 -46 0 0
-54z m35 -52 c-5 -16 -2 -20 17 -21 22 -2 22 -2 2 -6 -29 -6 -28 -53 0 -53 11
0 16 -3 12 -7 -4 -5 -13 -8 -18 -8 -6 0 -13 -6 -16 -14 -3 -10 0 -12 11 -8 9
3 19 2 22 -3 4 -6 -4 -10 -16 -10 -22 0 -18 -14 4 -16 7 0 20 -2 30 -2 11 -1
17 -10 17 -26 0 -17 -5 -23 -17 -22 -12 1 -17 -5 -15 -16 2 -13 -4 -18 -19
-18 -12 0 -19 -3 -15 -7 4 -5 12 -8 17 -8 5 0 9 -4 9 -10 0 -5 -4 -10 -9 -10
-5 0 -13 -3 -17 -7 -4 -5 1 -8 12 -8 18 -1 18 -1 1 -11 -10 -6 -25 -8 -33 -5
-8 3 -14 -1 -14 -10 0 -10 6 -14 15 -11 8 4 17 2 20 -3 4 -6 -3 -10 -14 -10
-12 0 -21 -5 -21 -10 0 -6 8 -10 18 -8 11 2 16 -3 14 -14 -2 -13 4 -18 19 -18
15 0 19 -5 15 -15 -3 -9 0 -15 9 -15 8 0 16 8 16 18 1 16 2 16 6 0 5 -22 23
-24 23 -3 0 8 4 15 10 15 5 0 7 -7 4 -15 -4 -8 -1 -15 5 -15 6 0 11 7 11 15 0
8 4 15 10 15 5 0 7 -7 4 -15 -4 -9 0 -15 10 -15 9 0 17 8 17 18 1 16 2 16 6 0
2 -10 11 -18 19 -18 8 0 14 -5 14 -11 0 -6 -7 -9 -15 -5 -10 4 -15 -1 -15 -14
0 -11 -4 -20 -10 -20 -5 0 -7 7 -4 15 4 9 0 15 -10 15 -10 0 -13 -6 -10 -15 4
-8 1 -15 -5 -15 -6 0 -11 9 -11 21 0 12 -4 17 -11 14 -6 -4 -8 -13 -5 -21 3
-8 1 -14 -4 -14 -6 0 -10 7 -10 15 0 21 -20 19 -21 -2 -1 -17 -2 -17 -6 0 -2
9 -11 17 -18 17 -9 0 -12 -6 -9 -15 4 -8 1 -15 -5 -15 -6 0 -11 7 -11 15 0 8
-9 15 -21 15 -16 0 -19 4 -14 20 3 11 2 20 -4 20 -5 0 -12 -10 -14 -22 -2 -13
-5 70 -6 185 -1 178 1 207 14 207 8 0 15 9 15 20 0 11 5 20 11 20 6 0 8 -9 4
-20z"/>
<path d="M1810 1965 c0 -33 15 -33 16 0 1 14 -2 25 -7 25 -5 0 -9 -11 -9 -25z"/>
<path d="M1810 1865 c0 -14 4 -25 9 -25 5 0 9 11 9 25 0 14 -4 25 -9 25 -5 0
-9 -11 -9 -25z"/>
<path d="M1810 1815 c0 -8 5 -15 10 -15 6 0 10 7 10 15 0 8 -4 15 -10 15 -5 0
-10 -7 -10 -15z"/>
<path d="M756 2093 c-12 -12 -6 -33 9 -33 8 0 15 6 15 14 0 17 -14 28 -24 19z"/>
<path d="M716 2015 c-4 -10 1 -15 14 -15 11 0 20 7 20 15 0 8 -6 15 -14 15 -8
0 -16 -7 -20 -15z"/>
<path d="M980 2015 c0 -8 7 -15 15 -15 8 0 15 7 15 15 0 8 -7 15 -15 15 -8 0
-15 -7 -15 -15z"/>
<path d="M1244 1989 c-10 -17 13 -36 27 -22 12 12 4 33 -11 33 -5 0 -12 -5
-16 -11z"/>
<path d="M782 1943 c2 -15 -3 -17 -29 -15 l-33 4 0 -199 0 -198 62 3 63 3 -3
151 -3 150 64 -7 c44 -4 68 -2 72 5 4 7 -2 14 -13 17 -11 2 -22 13 -25 24 -4
15 0 19 24 19 21 0 27 -4 23 -15 -4 -10 0 -15 15 -15 15 0 21 -5 19 -17 -2
-10 3 -18 10 -18 6 0 12 3 12 8 0 4 0 32 0 62 l0 55 -130 0 c-119 0 -131 -2
-128 -17z m49 -43 c5 0 9 9 9 21 0 11 4 18 10 14 5 -3 7 -12 3 -20 -3 -8 0
-15 6 -15 6 0 11 9 11 20 0 11 5 20 10 20 6 0 10 -7 8 -16 -2 -10 2 -19 9 -21
6 -2 13 6 16 19 2 13 4 3 4 -22 1 -25 -1 -37 -4 -27 -2 9 -11 17 -18 17 -9 0
-12 -6 -9 -15 4 -8 1 -15 -5 -15 -6 0 -11 7 -11 15 0 8 -5 15 -10 15 -6 0 -10
-8 -8 -17 2 -12 -3 -17 -14 -15 -14 2 -18 -4 -18 -33 0 -24 -4 -35 -15 -35 -8
0 -15 -5 -15 -11 0 -6 7 -9 15 -5 12 4 15 -4 15 -39 0 -33 -4 -45 -15 -45 -8
0 -15 -5 -15 -11 0 -6 7 -9 15 -5 12 4 15 -4 14 -42 -1 -26 -4 -37 -6 -24 -2
12 -9 22 -14 22 -5 0 -9 -7 -7 -16 2 -10 -3 -19 -11 -22 -10 -3 -12 0 -8 12 5
12 0 20 -16 26 -17 7 -18 9 -4 9 9 1 17 6 17 11 0 6 -8 10 -17 11 -13 0 -11 3
7 11 l25 11 -23 4 c-12 3 -20 9 -16 14 3 5 10 7 15 4 5 -4 9 1 9 10 0 9 -4 14
-9 10 -5 -3 -12 -1 -16 5 -3 5 1 10 9 10 22 0 20 20 -1 21 -13 0 -11 3 7 11
l25 11 -25 7 c-24 8 -24 11 0 14 6 0 9 6 8 11 -1 6 -8 9 -15 7 -7 -2 -13 2
-13 8 0 5 9 10 21 10 11 0 17 5 14 10 -4 6 -10 8 -15 5 -5 -3 -11 -1 -15 5 -6
10 13 15 48 12 9 -1 17 3 17 8 0 6 -17 11 -37 12 l-38 1 38 4 c30 3 37 8 38
26 2 22 2 22 6 0 2 -13 9 -23 14 -23z"/>
<path d="M790 1815 c0 -8 5 -15 10 -15 6 0 10 7 10 15 0 8 -4 15 -10 15 -5 0
-10 -7 -10 -15z"/>
<path d="M790 1715 c0 -8 5 -15 10 -15 6 0 10 7 10 15 0 8 -4 15 -10 15 -5 0
-10 -7 -10 -15z"/>
<path d="M1115 1750 c1 -116 4 -210 8 -210 4 0 32 0 62 0 l55 0 0 160 c0 152
-1 160 -20 160 -13 0 -18 5 -14 15 4 10 0 15 -15 15 -17 0 -21 6 -21 35 0 32
-3 35 -28 35 l-28 0 1 -210z m69 69 c-3 -5 5 -13 18 -18 l23 -10 -22 0 c-13
-1 -23 -5 -23 -11 0 -5 10 -11 23 -11 l22 -2 -22 -4 c-29 -6 -30 -23 -1 -23
12 0 18 -3 14 -7 -4 -5 -12 -8 -17 -8 -5 0 -9 -4 -9 -10 0 -5 4 -10 9 -10 5 0
13 -3 17 -7 4 -5 -2 -8 -14 -8 -29 0 -28 -20 1 -21 l22 -2 -22 -4 c-29 -5 -30
-23 -2 -23 11 0 18 -4 14 -10 -3 -5 -13 -6 -22 -3 -12 5 -15 2 -10 -10 3 -9 2
-27 -3 -39 l-9 -23 0 22 c-1 16 -6 21 -16 17 -8 -4 -15 -1 -15 5 0 6 7 11 15
11 8 0 15 5 15 11 0 6 -7 9 -15 5 -8 -3 -15 -1 -15 4 0 6 7 10 15 10 8 0 15 5
15 11 0 6 -7 9 -15 5 -9 -3 -15 0 -15 9 0 9 6 12 15 9 8 -4 15 -1 15 5 0 6 -7
11 -15 11 -8 0 -15 4 -15 10 0 5 7 7 15 4 10 -4 15 0 15 11 0 11 -5 15 -15 11
-8 -3 -15 -1 -15 4 0 6 7 10 15 10 8 0 15 5 15 11 0 6 -7 9 -15 5 -9 -3 -15 0
-15 9 0 9 6 12 15 9 8 -4 15 -1 15 5 0 6 -7 11 -15 11 -8 0 -15 4 -15 10 0 5
7 7 15 4 9 -4 15 0 15 10 0 10 -6 13 -15 10 -8 -4 -15 -1 -15 5 0 6 7 11 15
11 8 0 15 8 16 18 0 12 3 11 10 -6 5 -13 6 -28 3 -33z"/>
<path d="M1310 1750 l0 -210 30 0 c28 0 30 3 30 34 0 29 4 34 20 33 12 -1 20
-8 20 -19 0 -10 7 -18 15 -18 12 0 15 17 15 95 0 88 -1 95 -20 95 -13 0 -20 7
-20 20 0 19 7 20 90 20 l91 0 -2 -132 c0 -73 2 -132 5 -130 3 1 31 2 61 2 l55
0 0 160 c0 136 -2 160 -15 160 -8 0 -15 7 -15 15 0 8 -9 15 -21 15 -16 0 -19
4 -14 20 6 19 2 20 -74 20 l-81 0 0 -38 c0 -34 -3 -38 -22 -37 -21 2 -23 6
-20 53 l3 52 -65 0 -65 0 -1 -210z m85 154 c8 3 17 1 20 -4 4 -6 -3 -10 -14
-10 -12 0 -21 -5 -21 -10 0 -6 8 -10 18 -8 12 2 17 -4 17 -22 0 -15 -6 -25
-15 -25 -12 0 -15 -14 -15 -60 0 -39 4 -60 12 -60 6 0 15 -3 19 -7 4 -5 -2 -8
-14 -8 -12 0 -22 -5 -22 -11 0 -6 7 -9 15 -5 9 3 15 0 15 -9 0 -9 -6 -12 -15
-9 -10 4 -15 0 -15 -13 0 -12 -7 -19 -20 -19 -11 0 -20 4 -20 8 0 4 7 8 15 8
8 0 15 5 15 11 0 6 -7 9 -15 5 -9 -3 -15 0 -15 9 0 9 6 12 15 9 8 -4 15 -1 15
5 0 6 -7 11 -15 11 -8 0 -15 5 -15 10 0 5 5 9 11 7 6 -1 14 4 17 12 3 10 0 12
-12 8 -9 -4 -16 -2 -16 3 0 6 7 10 15 10 8 0 15 5 15 11 0 6 -7 9 -15 5 -9 -3
-15 0 -15 9 0 9 6 12 15 9 8 -4 15 -1 15 5 0 6 -9 11 -21 11 -11 0 -18 4 -14
10 3 5 13 6 22 3 11 -4 14 -2 11 8 -3 8 -11 13 -17 12 -6 -2 -11 2 -11 7 0 6
7 10 15 10 8 0 15 5 15 11 0 6 -7 9 -15 5 -9 -3 -15 0 -15 9 0 9 6 12 15 9 8
-4 15 -1 15 5 0 6 -10 12 -22 12 l-23 2 23 4 c14 3 22 12 23 26 2 21 2 21 6
-1 3 -15 10 -22 18 -18z m215 -19 c0 -8 9 -15 20 -15 11 0 20 -5 20 -11 0 -6
-7 -9 -15 -6 -8 4 -17 2 -20 -3 -4 -6 3 -10 14 -10 15 0 21 -6 21 -21 0 -11 4
-18 9 -14 5 3 12 1 16 -5 4 -6 -8 -10 -29 -10 -20 0 -36 -4 -36 -10 0 -5 8 -9
18 -8 34 3 53 -2 47 -12 -4 -6 -11 -8 -16 -5 -5 4 -9 1 -9 -4 0 -6 7 -11 16
-11 8 0 12 -5 9 -10 -4 -6 -11 -8 -16 -5 -5 4 -9 -1 -9 -10 0 -9 4 -14 9 -10
5 3 12 1 16 -5 4 -6 -9 -10 -34 -10 -23 0 -41 4 -41 10 0 5 7 7 15 4 10 -4 15
0 15 11 0 11 -5 15 -15 11 -8 -3 -15 -1 -15 4 0 6 9 10 21 10 12 0 17 4 14 11
-4 6 -13 8 -21 5 -11 -4 -14 4 -14 35 0 32 -3 39 -17 37 -10 -2 -18 2 -18 9 0
18 -15 28 -15 10 0 -9 -4 -17 -10 -17 -5 0 -9 3 -7 8 1 4 -2 8 -8 10 -5 1 -10
-2 -10 -7 0 -5 -3 -13 -7 -17 -5 -4 -8 6 -8 23 0 28 2 30 35 27 47 -3 45 14
-2 19 -28 3 -23 4 20 5 45 2 57 -1 57 -13z m66 -218 c4 -4 0 -7 -9 -7 -9 0
-17 -4 -17 -10 0 -5 8 -10 17 -10 9 0 13 -3 9 -7 -4 -5 -23 -8 -42 -8 -30 -1
-34 2 -34 25 0 23 4 26 34 25 19 0 38 -3 42 -8z m4 -65 c0 -5 -18 -9 -40 -9
-22 0 -40 4 -40 9 0 4 18 8 40 8 22 0 40 -4 40 -8z"/>
<path d="M1670 1945 c0 -8 7 -15 15 -15 8 0 15 7 15 15 0 8 -7 15 -15 15 -8 0
-15 -7 -15 -15z"/>
<path d="M1210 1915 c0 -8 7 -15 15 -15 8 0 15 7 15 15 0 8 -7 15 -15 15 -8 0
-15 -7 -15 -15z"/>
<path d="M2270 1685 c0 -8 7 -15 15 -15 8 0 15 7 15 15 0 8 -7 15 -15 15 -8 0
-15 -7 -15 -15z"/>
<path d="M2170 1651 c0 -12 6 -21 16 -21 9 0 14 7 12 17 -5 25 -28 28 -28 4z"/>
<path d="M2234 1659 c-8 -14 11 -33 25 -25 11 7 4 36 -9 36 -5 0 -12 -5 -16
-11z"/>
<path d="M386 1562 c-2 -4 -1 -14 4 -22 7 -11 12 -12 21 -3 6 6 8 16 5 22 -8
13 -23 14 -30 3z"/>
<path d="M420 1515 c0 -8 7 -15 15 -15 8 0 15 7 15 15 0 8 -7 15 -15 15 -8 0
-15 -7 -15 -15z"/>
<path d="M1410 1515 c0 -8 7 -15 15 -15 8 0 15 7 15 15 0 8 -7 15 -15 15 -8 0
-15 -7 -15 -15z"/>
<path d="M652 1454 c4 -21 22 -23 26 -1 2 10 -3 17 -13 17 -10 0 -15 -6 -13
-16z"/>
<path d="M720 1449 c0 -24 23 -21 28 4 2 10 -3 17 -12 17 -10 0 -16 -9 -16
-21z"/>
<path d="M1410 1449 c0 -24 23 -21 28 4 2 10 -3 17 -12 17 -10 0 -16 -9 -16
-21z"/>
<path d="M257 1238 l2 -193 97 -2 c83 -2 95 0 90 13 -4 11 1 18 15 21 12 3 18
11 15 19 -4 10 3 14 23 14 23 0 27 -4 26 -22 -1 -15 -8 -22 -19 -20 -14 2 -16
-9 -16 -83 l0 -85 -70 0 c-58 0 -68 -3 -64 -15 4 -10 0 -15 -15 -15 -15 0 -21
-5 -19 -16 2 -11 -5 -18 -19 -19 -16 -1 -23 4 -23 17 0 10 -6 18 -12 18 -9 0
-13 -16 -13 -45 l0 -45 178 0 177 0 0 196 0 196 -115 -4 -115 -3 0 53 c0 44
-3 52 -17 50 -13 -2 -17 5 -17 34 -1 35 0 36 36 40 30 3 38 0 40 -15 3 -17 13
-19 96 -19 50 0 92 3 92 6 0 3 0 18 0 32 0 19 -4 25 -15 20 -10 -4 -15 1 -15
14 0 13 -7 20 -20 20 -13 0 -18 5 -14 15 5 13 -14 15 -142 15 l-149 0 2 -192z
m169 147 c1 -14 -2 -25 -7 -25 -5 0 -9 11 -9 25 0 33 15 33 16 0z m64 5 c0
-28 20 -25 21 3 0 20 1 20 8 3 4 -11 16 -23 27 -27 17 -7 17 -8 -3 -8 -16 -1
-21 -6 -17 -16 4 -8 1 -15 -5 -15 -6 0 -11 7 -11 15 0 21 -20 19 -21 -2 -1
-17 -2 -17 -6 0 -2 9 -13 17 -24 17 -10 0 -19 5 -19 10 0 6 8 10 18 8 11 -2
17 3 16 15 -1 9 2 17 7 17 5 0 9 -9 9 -20z m-198 -35 c3 -14 1 -28 -3 -31 -5
-3 -9 9 -9 25 0 38 6 40 12 6z m33 -55 c-3 -5 -12 -7 -20 -3 -10 3 -15 -1 -15
-11 0 -11 7 -16 18 -14 13 2 17 -4 17 -29 0 -26 4 -33 20 -34 17 -1 17 -2 3
-6 -10 -2 -18 -11 -18 -18 0 -9 6 -12 15 -9 8 4 15 1 15 -5 0 -6 -7 -11 -15
-11 -8 0 -15 -4 -15 -8 0 -5 14 -8 30 -7 23 1 30 -2 30 -17 0 -10 5 -18 10
-18 6 0 10 9 10 21 0 11 4 18 10 14 5 -3 7 -12 3 -20 -3 -10 2 -15 18 -16 24
-2 24 -2 2 -6 -13 -2 -24 -12 -24 -21 -1 -15 -2 -15 -6 1 -6 24 -23 21 -24 -5
l-2 -23 -4 23 c-5 25 -23 30 -23 7 0 -8 -4 -15 -10 -15 -5 0 -7 7 -4 15 4 10
0 15 -11 15 -11 0 -15 -5 -11 -15 3 -8 1 -15 -4 -15 -6 0 -10 7 -10 15 0 8 -7
15 -15 15 -10 0 -15 9 -14 28 2 23 2 24 6 5 7 -39 19 -25 20 22 1 35 -3 45
-16 46 -14 1 -14 2 2 6 9 2 17 9 17 15 0 5 -7 8 -15 4 -12 -4 -15 4 -15 39 0
42 2 45 26 45 14 0 23 -4 19 -10z m265 -261 c0 -6 -7 -9 -15 -5 -9 3 -15 0
-15 -10 0 -10 6 -14 15 -10 8 3 15 1 15 -4 0 -6 -19 -9 -42 -9 -24 1 -35 3
-25 6 9 2 17 13 17 24 0 14 7 19 25 19 14 0 25 -5 25 -11z m-9 -59 c5 0 9 -4
9 -9 0 -5 -18 -8 -40 -7 -22 0 -40 4 -40 8 0 9 32 17 48 12 8 -2 18 -4 23 -4z
m9 -41 c0 -6 -7 -9 -15 -5 -9 3 -15 0 -15 -10 0 -10 6 -14 15 -10 8 3 15 1 15
-4 0 -5 -10 -11 -22 -13 l-23 -4 23 -8 c12 -4 22 -11 22 -16 0 -5 -7 -6 -15
-3 -8 4 -15 1 -15 -5 0 -6 7 -11 15 -11 8 0 15 -4 15 -10 0 -5 -14 -8 -31 -6
-24 3 -32 -1 -39 -18 -9 -21 -9 -21 -9 2 -1 27 -21 30 -21 2 0 -11 -4 -20 -9
-20 -5 0 -8 8 -7 17 1 12 -7 17 -24 17 -18 0 -24 -5 -22 -17 2 -9 -2 -17 -8
-17 -5 0 -10 9 -10 20 0 28 -20 25 -21 -2 -1 -22 -1 -22 -8 2 -4 14 -5 34 -2
45 5 17 6 18 9 3 4 -22 22 -24 22 -3 0 8 5 15 11 15 6 0 9 -7 5 -15 -3 -9 0
-15 9 -15 9 0 12 6 9 15 -4 8 -1 15 5 15 6 0 11 -7 11 -15 0 -8 5 -15 10 -15
6 0 10 8 8 18 -2 11 3 16 15 14 11 -2 17 4 17 17 0 14 5 19 15 15 9 -4 15 0
15 10 0 10 -6 13 -15 10 -8 -4 -15 -1 -15 5 0 6 17 11 40 11 23 0 40 -5 40
-11z"/>
<path d="M650 1385 c0 -8 7 -15 15 -15 8 0 15 7 15 15 0 8 -7 15 -15 15 -8 0
-15 -7 -15 -15z"/>
<path d="M980 1320 c0 -11 7 -20 15 -20 8 0 15 9 15 20 0 11 -7 20 -15 20 -8
0 -15 -9 -15 -20z"/>
<path d="M1440 1326 c0 -18 16 -29 30 -21 13 8 1 35 -16 35 -8 0 -14 -6 -14
-14z"/>
<path d="M2730 1321 c0 -12 -6 -21 -15 -21 -8 0 -15 -7 -15 -15 0 -10 10 -15
31 -15 28 0 30 2 27 32 -3 35 -28 52 -28 19z"/>
<path d="M1410 1255 c0 -8 7 -15 15 -15 8 0 15 7 15 15 0 8 -7 15 -15 15 -8 0
-15 -7 -15 -15z"/>
<path d="M2200 1255 c0 -8 7 -15 15 -15 8 0 15 7 15 15 0 8 -7 15 -15 15 -8 0
-15 -7 -15 -15z"/>
<path d="M750 1180 c0 -13 -5 -18 -15 -14 -13 5 -15 -20 -15 -190 l0 -196 160
0 160 0 0 55 c0 30 0 58 0 63 0 4 -6 7 -12 7 -7 0 -12 -8 -10 -17 2 -12 -4
-18 -18 -18 -13 0 -20 -7 -20 -18 0 -11 -8 -18 -21 -19 -18 -2 -21 3 -17 33
l4 34 -54 0 -53 0 2 68 c2 57 0 67 -14 66 -13 -1 -17 7 -17 37 0 39 0 39 39
39 30 0 38 -4 37 -16 -1 -14 12 -17 76 -18 l77 -1 3 63 c2 52 0 62 -13 62 -9
0 -16 -7 -15 -16 0 -10 -8 -18 -23 -20 -19 -4 -22 -1 -18 16 5 19 0 20 -109
20 -107 0 -114 -1 -114 -20z m181 -70 c6 0 7 9 4 20 -5 14 -2 20 10 20 12 0
15 -6 10 -20 -4 -11 -2 -20 4 -20 6 0 11 9 11 21 0 11 4 18 10 14 5 -3 7 -12
4 -20 -4 -8 3 -15 18 -18 13 -2 -2 -5 -33 -6 -49 -1 -57 2 -62 19 -3 11 -2 30
1 43 6 18 8 15 10 -15 2 -21 8 -38 13 -38z m-141 25 c0 -8 -4 -15 -10 -15 -5
0 -10 7 -10 15 0 8 5 15 10 15 6 0 10 -7 10 -15z m15 -125 c17 -7 17 -9 3 -9
-10 -1 -18 -6 -18 -12 0 -6 7 -9 15 -5 12 4 15 -5 15 -49 0 -48 3 -55 20 -55
13 0 18 -5 14 -15 -4 -8 -1 -15 5 -15 6 0 11 7 11 15 0 8 4 15 10 15 5 0 7 -7
4 -15 -4 -10 0 -15 15 -15 16 0 21 -6 20 -27 0 -27 0 -28 -10 -5 -5 13 -13 21
-18 17 -6 -3 -8 -12 -4 -20 3 -8 0 -15 -6 -15 -6 0 -11 9 -11 21 0 11 -4 18
-10 14 -5 -3 -7 -12 -3 -20 3 -8 1 -15 -5 -15 -5 0 -13 10 -17 23 l-7 22 -8
-25 c-8 -25 -8 -25 -9 -2 -1 19 -5 22 -21 17 -16 -5 -20 -2 -20 14 0 13 -7 21
-17 22 -13 0 -11 3 7 11 l25 11 -23 4 c-12 3 -20 9 -16 14 3 5 10 7 15 4 8 -5
11 12 8 43 0 4 -7 6 -15 4 -23 -5 -16 15 9 23 22 8 22 8 -3 13 -23 4 -24 5 -5
13 25 10 26 10 50 -1z"/>
<path d="M790 925 c0 -8 5 -15 10 -15 6 0 10 7 10 15 0 8 -4 15 -10 15 -5 0
-10 -7 -10 -15z"/>
<path d="M1115 1005 c0 -179 1 -195 18 -195 9 0 17 -7 17 -15 0 -11 12 -15 45
-15 l45 0 0 130 c0 117 -2 131 -17 128 -13 -2 -17 6 -19 35 -2 37 -2 37 37 37
30 0 39 -4 39 -17 0 -16 11 -18 80 -18 l80 -1 0 48 c0 36 -4 48 -15 48 -8 0
-15 -9 -15 -20 0 -13 -7 -20 -20 -20 -14 0 -20 7 -20 24 0 16 5 23 16 22 9 0
19 5 21 12 4 9 -29 12 -144 12 l-148 0 0 -195z m67 73 c-4 -66 -3 -68 19 -69
24 -2 24 -2 2 -6 -29 -6 -30 -23 -1 -23 12 0 18 -3 14 -7 -4 -5 -12 -8 -18 -8
-6 0 -12 -12 -14 -27 -2 -23 2 -28 19 -29 22 -2 22 -2 0 -6 -13 -2 -23 -9 -23
-14 0 -5 10 -10 23 -10 l22 -2 -23 -4 c-15 -3 -22 -10 -18 -19 3 -8 1 -24 -4
-36 -7 -20 -9 -18 -9 16 -1 30 -4 37 -16 32 -8 -3 -15 -1 -15 4 0 6 7 10 15
10 8 0 15 5 15 10 0 6 -7 10 -15 10 -8 0 -15 4 -15 10 0 5 7 7 15 4 9 -4 15 0
15 10 0 10 -6 13 -15 10 -8 -4 -15 -1 -15 5 0 6 7 11 15 11 8 0 15 5 15 11 0
6 -7 9 -15 5 -9 -3 -15 0 -15 9 0 9 6 12 15 9 8 -4 15 -1 15 5 0 6 -7 11 -15
11 -8 0 -15 4 -15 10 0 5 7 7 15 4 12 -5 15 3 15 40 0 41 -3 46 -22 47 l-23 2
23 4 c18 4 22 11 23 41 0 28 2 32 8 17 4 -10 6 -50 3 -87z m38 77 c0 -14 -4
-25 -9 -25 -5 0 -8 11 -8 25 0 14 3 25 8 25 5 0 9 -11 9 -25z m30 -1 c0 -14
-4 -23 -9 -20 -7 5 -8 23 -2 44 4 12 11 -3 11 -24z m43 -11 c7 2 11 12 9 22
-2 10 1 14 7 10 6 -3 11 -17 11 -29 0 -19 -4 -22 -25 -18 -20 3 -25 10 -24 31
2 24 2 24 6 3 3 -13 10 -21 16 -19z m70 -40 c-13 -2 -33 -2 -45 0 -13 2 -3 4
22 4 25 0 35 -2 23 -4z"/>
<path d="M1578 1164 c4 -30 2 -35 -14 -32 -13 2 -19 -3 -18 -14 1 -11 -5 -18
-17 -18 -18 0 -19 -10 -19 -160 l0 -160 163 0 162 0 0 45 0 45 -37 0 c-29 0
-36 3 -32 15 5 12 -6 15 -63 15 l-69 0 0 91 0 91 33 -5 c28 -5 33 -3 33 14 0
16 7 19 41 19 36 0 40 -2 37 -22 -2 -16 -9 -22 -20 -20 -12 2 -18 -4 -18 -17
0 -14 -5 -19 -15 -15 -11 5 -15 -2 -15 -27 l0 -34 61 1 61 1 2 111 1 112 -130
0 -131 0 4 -36z m129 -31 c-3 -10 -5 -2 -5 17 0 19 2 27 5 18 2 -10 2 -26 0
-35z m-57 -4 c0 -9 8 -20 18 -22 9 -3 0 -5 -21 -6 l-38 -1 2 -110 c1 -101 3
-110 20 -110 10 0 19 -7 19 -15 0 -8 4 -15 10 -15 5 0 7 7 4 15 -4 8 -1 15 5
15 6 0 11 -7 11 -15 0 -21 20 -19 21 3 1 16 2 16 6 0 6 -23 23 -23 23 -1 0 28
10 8 15 -31 3 -20 1 -36 -5 -36 -6 0 -10 9 -10 20 0 28 -20 25 -21 -2 l-2 -23
-4 23 c-5 27 -23 29 -23 2 0 -11 -5 -20 -10 -20 -6 0 -10 8 -8 17 2 12 -4 17
-22 17 -18 0 -24 -5 -22 -17 4 -26 -16 -20 -21 6 l-4 22 -8 -22 c-11 -35 -23
-27 -19 12 2 26 -1 35 -11 33 -8 -2 -14 2 -14 7 0 6 7 9 15 7 8 -2 14 2 14 8
0 5 -10 10 -22 10 -12 0 -18 3 -14 8 4 4 12 7 17 7 5 0 9 5 9 10 0 6 -4 10 -9
10 -5 0 -13 3 -17 8 -4 4 3 7 16 7 13 0 20 3 16 8 -4 4 -12 7 -17 7 -5 0 -8 4
-6 10 1 5 8 9 15 7 6 -2 12 2 12 8 0 5 -9 10 -21 10 -11 0 -18 4 -14 10 3 5
12 7 20 4 11 -5 13 1 10 25 -5 40 4 71 21 71 8 0 14 8 14 19 0 13 7 19 25 19
17 0 25 -6 25 -19z m31 8 c-1 -12 -15 -9 -19 4 -3 6 1 10 8 8 6 -3 11 -8 11
-12z"/>
<path d="M1584 1055 c0 -25 4 -45 8 -45 4 0 8 20 8 45 0 25 -4 45 -8 45 -4 0
-8 -20 -8 -45z"/>
<path d="M1584 955 c0 -25 4 -45 8 -45 4 0 8 20 8 45 0 25 -4 45 -8 45 -5 0
-9 -20 -8 -45z"/>
<path d="M1907 1023 c1 -113 6 -179 13 -181 5 -2 10 6 10 17 0 16 6 21 26 21
21 0 25 -4 22 -22 -2 -16 -9 -22 -20 -20 -11 2 -18 -3 -18 -13 0 -8 9 -15 20
-15 13 0 18 -5 14 -15 -5 -13 13 -15 125 -15 l131 0 0 45 0 45 -50 0 c-38 0
-50 4 -50 15 0 11 -12 15 -50 15 l-50 0 0 90 0 90 55 0 c52 0 55 -1 55 -25 0
-19 -5 -25 -17 -23 -14 2 -18 -4 -18 -25 0 -28 1 -29 63 -30 l62 -2 0 83 c0
73 -2 83 -17 80 -10 -2 -18 3 -18 12 0 8 -9 14 -19 13 -13 -1 -16 4 -13 18 5
18 -2 19 -126 19 l-132 0 2 -177z m68 136 c0 -5 5 -9 10 -9 6 0 10 4 10 9 0 5
3 13 8 17 4 4 7 -3 7 -16 0 -13 3 -20 8 -16 4 4 7 12 7 17 0 5 5 9 10 9 6 0
10 -4 10 -9 0 -5 3 -13 8 -17 4 -4 7 3 7 16 0 13 3 20 8 16 4 -4 7 -12 7 -17
0 -5 5 -9 10 -9 6 0 10 4 10 9 0 5 3 13 8 17 4 4 7 -2 7 -13 0 -17 5 -20 21
-16 18 5 20 3 14 -16 -4 -12 -2 -21 4 -21 6 0 12 10 12 23 l2 22 4 -22 c3 -15
12 -23 26 -24 22 -2 22 -2 0 -6 -29 -6 -30 -23 -1 -23 25 0 16 -13 -12 -17
-14 -2 -20 3 -20 17 0 18 -7 20 -75 20 -70 0 -75 -2 -75 -21 0 -14 -5 -19 -15
-16 -8 4 -17 2 -20 -3 -4 -6 3 -10 14 -10 12 0 21 -5 21 -10 0 -6 -6 -10 -14
-8 -8 2 -14 -1 -13 -7 1 -5 8 -9 15 -9 6 1 12 -2 12 -7 0 -5 -9 -9 -21 -9 -12
0 -17 -4 -14 -11 4 -6 13 -8 21 -5 8 3 14 -1 14 -9 0 -8 -6 -12 -14 -9 -8 3
-17 1 -21 -5 -3 -7 2 -11 14 -11 17 0 21 -6 21 -35 0 -28 4 -35 20 -35 13 0
18 -5 14 -15 -4 -8 -1 -15 5 -15 6 0 11 7 11 15 0 8 4 15 10 15 5 0 7 -7 4
-15 -4 -10 0 -15 11 -15 11 0 15 5 11 15 -3 8 -1 15 4 15 6 0 10 -18 10 -40 0
-22 -5 -40 -10 -40 -6 0 -10 6 -8 14 2 8 -1 14 -7 13 -5 -1 -9 -8 -9 -14 3
-23 -14 -14 -19 10 l-4 22 -8 -24 -8 -25 -10 25 -10 24 -7 -25 c-7 -22 -8 -20
-10 15 -1 22 -2 46 -1 53 1 6 -7 12 -19 12 -13 0 -20 7 -20 20 0 13 -5 18 -15
14 -8 -4 -15 -1 -15 5 0 6 7 11 15 11 8 0 15 5 15 11 0 6 -7 9 -15 5 -8 -3
-15 -1 -15 4 0 6 7 10 15 10 21 0 19 20 -2 21 -17 1 -17 2 0 6 11 3 17 14 17
33 0 22 -4 28 -15 24 -8 -4 -15 -1 -15 5 0 6 7 11 15 11 21 0 19 20 -2 21 -17
1 -17 2 0 6 12 3 17 15 17 40 0 20 3 33 8 29 4 -4 7 -12 7 -17z m201 -134 c-1
-33 -16 -33 -16 0 0 14 4 25 9 25 5 0 8 -11 7 -25z m-36 -200 c0 -14 -2 -25
-4 -25 -2 0 -6 11 -8 25 -3 14 -1 25 3 25 5 0 9 -11 9 -25z"/>
<path d="M2070 1120 c0 -5 7 -10 15 -10 8 0 15 5 15 10 0 6 -7 10 -15 10 -8 0
-15 -4 -15 -10z"/>
<path d="M1970 1090 c0 -5 7 -10 15 -10 8 0 15 5 15 10 0 6 -7 10 -15 10 -8 0
-15 -4 -15 -10z"/>
<path d="M1977 934 c-8 -8 1 -24 14 -24 5 0 9 7 9 15 0 15 -12 20 -23 9z"/>
<path d="M2300 990 l0 -210 65 0 65 0 0 110 c0 103 -1 110 -20 110 -14 0 -20
7 -20 23 0 21 3 22 90 22 l91 0 -2 -115 c-1 -99 1 -115 15 -118 9 -2 16 -10
16 -18 0 -10 13 -14 45 -14 l45 0 0 160 c0 150 -1 160 -19 160 -12 0 -18 7
-17 17 0 10 -6 18 -14 18 -9 0 -14 8 -12 18 3 15 -7 17 -78 17 -73 0 -80 -2
-80 -20 0 -13 -7 -20 -20 -20 -14 0 -20 7 -20 21 0 17 -5 20 -21 16 -17 -5
-20 -2 -16 14 5 17 0 19 -44 19 l-49 0 0 -210z m51 120 c6 0 7 9 4 20 -5 14
-2 20 10 20 12 0 15 -6 10 -20 -4 -11 -2 -20 4 -20 6 0 12 10 12 23 l2 22 4
-22 c4 -20 11 -23 49 -23 35 0 44 4 45 18 1 16 2 16 6 0 2 -10 11 -18 20 -18
9 0 13 6 10 15 -4 8 -2 17 3 20 6 4 10 -3 10 -14 0 -12 5 -21 11 -21 6 0 9 7
6 15 -4 8 -2 17 3 20 6 4 10 -3 10 -14 0 -28 20 -27 21 2 l2 22 4 -22 c3 -15
12 -23 26 -24 22 -2 22 -2 0 -6 -13 -2 -23 -9 -23 -15 0 -6 9 -8 20 -5 17 4
20 0 20 -34 0 -30 4 -39 18 -40 16 -1 16 -2 0 -6 -22 -5 -24 -23 -3 -23 8 0
15 -5 15 -11 0 -6 -7 -9 -15 -5 -11 4 -15 -2 -15 -25 0 -17 4 -28 9 -24 5 3
12 1 16 -5 3 -5 -1 -10 -9 -10 -22 0 -20 -20 2 -21 16 -1 16 -2 0 -6 -10 -2
-18 -13 -18 -24 0 -20 -15 -26 -25 -9 -3 6 -1 10 5 10 6 0 8 5 5 11 -4 6 -13
8 -21 5 -8 -3 -14 1 -14 9 0 8 6 12 14 9 8 -3 17 -1 21 5 3 7 -2 11 -14 11
-12 0 -21 4 -21 10 0 5 7 7 15 4 10 -4 15 0 15 11 0 11 -5 15 -15 11 -8 -3
-15 -1 -15 4 0 6 9 10 21 10 12 0 17 4 14 11 -4 6 -13 8 -21 5 -8 -3 -14 1
-14 9 0 8 6 12 14 9 8 -3 17 -1 21 5 3 7 -2 11 -14 11 -17 0 -21 6 -21 35 0
29 -4 35 -17 33 -12 -2 -17 3 -15 15 2 9 -2 17 -8 17 -5 0 -10 -7 -10 -15 0
-8 -4 -15 -10 -15 -5 0 -7 7 -4 15 4 10 0 15 -11 15 -11 0 -15 -5 -12 -15 4
-8 2 -17 -3 -20 -6 -4 -10 3 -10 14 0 12 -4 21 -10 21 -5 0 -10 -7 -10 -15 0
-8 -4 -15 -10 -15 -5 0 -7 7 -4 15 4 8 1 15 -5 15 -6 0 -11 -7 -11 -15 0 -8
-4 -15 -10 -15 -5 0 -7 7 -4 15 4 10 0 15 -10 15 -11 0 -16 -7 -14 -17 2 -11
-2 -17 -10 -15 -8 1 -16 -7 -19 -18 -7 -24 -25 -27 -21 -2 2 9 -3 16 -9 15 -7
-2 -13 4 -13 12 0 9 6 12 15 9 8 -4 15 -1 15 5 0 6 -8 11 -19 11 -15 0 -17 5
-12 28 5 25 6 25 9 5 2 -13 8 -23 13 -23z m4 -96 c8 3 17 1 20 -4 4 -6 -7 -10
-23 -10 -27 0 -29 2 -23 28 5 25 6 26 9 4 2 -15 9 -22 17 -18z m19 -67 c-2
-40 12 -51 18 -14 3 20 4 20 9 -5 5 -23 3 -28 -12 -28 -11 0 -19 -5 -19 -11 0
-6 7 -9 15 -5 12 4 15 -2 14 -27 -1 -23 -3 -26 -6 -9 -5 26 -23 30 -21 5 1
-10 0 -27 -1 -38 -2 -18 -3 -18 -12 3 -5 13 -13 20 -19 17 -6 -4 -10 6 -10 24
0 23 4 29 15 25 8 -4 15 -1 15 5 0 6 -8 11 -19 11 -14 0 -17 6 -13 25 2 14 11
25 19 25 8 0 11 5 8 10 -4 6 -11 8 -16 5 -5 -4 -9 0 -9 8 0 8 9 13 23 12 19
-1 22 -7 21 -38z"/>
<path d="M154 999 c-10 -17 13 -36 27 -22 12 12 4 33 -11 33 -5 0 -12 -5 -16
-11z"/>
<path d="M220 955 c0 -8 -7 -15 -15 -15 -8 0 -15 -7 -15 -15 0 -8 7 -15 15
-15 8 0 15 7 15 15 0 8 7 15 15 15 8 0 15 7 15 15 0 8 -7 15 -15 15 -8 0 -15
-7 -15 -15z"/>
<path d="M2560 725 c0 -8 9 -15 20 -15 11 0 20 7 20 15 0 8 -9 15 -20 15 -11
0 -20 -7 -20 -15z"/>
<path d="M1110 696 c0 -8 4 -17 9 -20 11 -7 33 18 24 27 -12 12 -33 7 -33 -7z"/>
<path d="M1907 703 c-13 -12 -7 -23 13 -23 11 0 20 7 20 15 0 15 -21 21 -33 8z"/>
<path d="M1140 625 c0 -8 9 -15 20 -15 11 0 20 7 20 15 0 8 -9 15 -20 15 -11
0 -20 -7 -20 -15z"/>
<path d="M1510 625 c0 -8 7 -15 15 -15 8 0 15 7 15 15 0 8 -7 15 -15 15 -8 0
-15 -7 -15 -15z"/>
<path d="M1440 595 c0 -8 7 -15 15 -15 8 0 15 7 15 15 0 8 -7 15 -15 15 -8 0
-15 -7 -15 -15z"/>
<path d="M1474 569 c-10 -17 13 -36 27 -22 12 12 4 33 -11 33 -5 0 -12 -5 -16
-11z"/>
</g>
</svg>
